<svg xmlns:xlink="http://www.w3.org/1999/xlink" aria-hidden="true" role="img" class="iconify iconify--logos" width="31.88" height="32" preserveAspectRatio="xMidYMid meet" xmlns="http://www.w3.org/2000/svg" version="1.0" viewBox="0 0 1248 768"><path fill="#BF8040" fill-opacity=".3" d="M552.5 145.5c0 80.3.1 113.3.2 73.3.2-39.9.2-105.6 0-146-.1-40.3-.2-7.6-.2 72.7M387.9 359.7c-1.3 1.6-1.2 1.7.4.4.9-.7 1.7-1.5 1.7-1.7 0-.8-.8-.3-2.1 1.3m-6 6c-1.3 1.6-1.2 1.7.4.4.9-.7 1.7-1.5 1.7-1.7 0-.8-.8-.3-2.1 1.3"/><path fill="#BF8040" d="m552.8 145.7-.3 145.8-11.2.6c-6.1.4-13 1-15.2 1.4l-4.1.7V66h-11v230l-2.7.5c-1.6.4-8.4 2.2-15.2 4.1-6.7 1.9-12.7 3.4-13.2 3.4s-.9-33.9-.9-81v-81h-11v83.2l-.1 83.3-15.7 7.7c-25.2 12.3-47.3 28-64.7 45.9-7.9 8.1-7.9 8.1-2.5 4.1 13.5-10 35.6-22.2 55.1-30.5 64.4-27.5 144.1-30.9 212-9.2 25.4 8.2 50.9 20.3 71.6 34.1 13.3 8.9 13.8 7.9 1.6-3.1-20.4-18.5-37.7-30.3-60.5-41.4l-15.8-7.6V142h-11v81c0 47-.4 81-.9 81s-3.7-.9-7.2-1.9c-5.7-1.8-13.4-3.8-21.1-5.5l-2.8-.6V66h-10v228.2l-5.2-.7c-2.9-.5-10-1.1-15.8-1.4l-10.5-.6-.3-145.8L564 0h-11z"/><path fill="#BF8040" fill-opacity=".5" d="M564.5 145.5c0 80.3.1 113.3.2 73.3.2-39.9.2-105.6 0-146-.1-40.3-.2-7.6-.2 72.7m166.5 217c1.3 1.4 2.6 2.5 2.8 2.5.3 0-.5-1.1-1.8-2.5s-2.6-2.5-2.8-2.5c-.3 0 .5 1.1 1.8 2.5"/><path fill="#BF8040" fill-opacity=".7" d="M510.5 180c0 63.5.1 89.5.2 57.7.2-31.7.2-83.7 0-115.5-.1-31.7-.2-5.7-.2 57.8m-39.7-38.3c1.8.2 4.5.2 6 0s0-.4-3.3-.4-4.5.2-2.7.4m170 0c1.8.2 4.5.2 6 0s0-.4-3.3-.4-4.5.2-2.7.4m-85 171c1.8.2 4.5.2 6 0s0-.4-3.3-.4-4.5.2-2.7.4"/><path fill="#BF8040" fill-opacity=".9" d="M513.8 65.7c1.8.2 4.5.2 6 0s0-.4-3.3-.4-4.5.2-2.7.4m81.4 114 .3 114.8.2-114.3L596 66h10l.3 115.2.2 115.3.3-115.8L607 65h-12zm-46.9 112c.9.2 2.3.2 3 0 .6-.3-.1-.5-1.8-.5-1.6 0-2.2.2-1.2.5m18 0c.9.2 2.3.2 3 0 .6-.3-.1-.5-1.8-.5-1.6 0-2.2.2-1.2.5m-20.5 21c.6.2 1.8.2 2.5 0 .6-.3.1-.5-1.3-.5s-1.9.2-1.2.5m24 0c.7.3 1.6.2 1.9-.1.4-.3-.2-.6-1.3-.5-1.1 0-1.4.3-.6.6M714 347.4c0 .2.8 1 1.8 1.7 1.5 1.3 1.6 1.2.3-.4s-2.1-2.1-2.1-1.3m-314.1 2.3c-1.3 1.6-1.2 1.7.4.4s2.1-2.1 1.3-2.1c-.2 0-1 .8-1.7 1.7m322.1 4.6c0 .2 1.5 1.6 3.3 3.3l3.2 2.9-2.9-3.3c-2.8-3-3.6-3.7-3.6-2.9M385.5 363c-4.4 4.4-7.5 8-7 8 .6 0 1.6-.9 2.3-2 .7-1.2 1.8-1.8 2.5-1.4s.9.3.4-.1c-.4-.5 1.8-3.5 5-6.7s5.5-5.8 5.2-5.8c-.2 0-4 3.6-8.4 8m348 3.9c-.3.7-.2 1 .4.9.5-.2 1.6.6 2.4 1.7.9 1.1 1.8 1.7 2.1 1.4s-.5-1.6-1.8-2.8c-1.6-1.5-2.6-1.9-3.1-1.2"/><path fill="#BF8040" fill-opacity=".1" d="M522.5 179c0 63 .1 88.7.2 57.3.2-31.5.2-83.1 0-114.5-.1-31.5-.2-5.8-.2 57.2"/><path fill="#BF8040" fill-opacity=".4" d="M726 357.4c0 .2.8 1 1.8 1.7 1.5 1.3 1.6 1.2.3-.4s-2.1-2.1-2.1-1.3m-341.1 5.3c-1.3 1.6-1.2 1.7.4.4s2.1-2.1 1.3-2.1c-.2 0-1 .8-1.7 1.7"/><path fill="#BF8040" fill-opacity=".2" d="M649.2 224.2c-.1 46 .1 83.9.6 84.1.6.5.6-59.4-.1-137.8-.1-16.5-.3 7.7-.5 53.7M390.9 356.7c-1.3 1.6-1.2 1.7.4.4s2.1-2.1 1.3-2.1c-.2 0-1 .8-1.7 1.7"/><path fill="#BF8040" fill-opacity=".8" d="M479.5 223c0 44.8.1 63.2.2 40.8.2-22.5.2-59.1 0-81.6-.1-22.4-.2-4-.2 40.8m70.3 89.7c.6.2 1.8.2 2.5 0 .6-.3.1-.5-1.3-.5s-1.9.2-1.2.5m15.5 0c.9.2 2.3.2 3 0 .6-.3-.1-.5-1.8-.5-1.6 0-2.2.2-1.2.5"/><path fill="#BF8040" fill-opacity=".6" d="M637.5 222.5c0 44.5.1 62.9.2 40.8.2-22.1.2-58.5 0-81-.1-22.4-.2-4.4-.2 40.2"/><path fill-opacity=".1" d="M1099 376.4c0 .2.8 1 1.8 1.7 1.5 1.3 1.6 1.2.3-.4s-2.1-2.1-2.1-1.3m-1083 1c0 .2.8 1 1.8 1.7 1.5 1.3 1.6 1.2.3-.4s-2.1-2.1-2.1-1.3m140 11c0 .2.8 1 1.8 1.7 1.5 1.3 1.6 1.2.3-.4s-2.1-2.1-2.1-1.3m131.5 91.1c0 49.5.1 69.6.2 44.7.2-25 .2-65.5 0-90-.1-24.6-.2-4.2-.2 45.3m819 .5c0 48.7.1 68.6.2 44.3.2-24.4.2-64.2 0-88.6-.1-24.3-.2-4.4-.2 44.3m-616.6-85.3c-1.3 1.6-1.2 1.7.4.4.9-.7 1.7-1.5 1.7-1.7 0-.8-.8-.3-2.1 1.3m140.4 83.8c0 3.3.2 4.5.4 2.7s.2-4.5 0-6-.4 0-.4 3.3m-174 0c0 2.7.2 3.8.4 2.2.2-1.5.2-3.7 0-5-.2-1.2-.4 0-.4 2.8m-65.4 14.2c-1.3 1.6-1.2 1.7.4.4.9-.7 1.7-1.5 1.7-1.7 0-.8-.8-.3-2.1 1.3M134 498.4c0 .2.8 1 1.8 1.7 1.5 1.3 1.6 1.2.3-.4s-2.1-2.1-2.1-1.3m624.5 5.6c1 1.1 2 2 2.3 2s-.3-.9-1.3-2-2-2-2.3-2 .3.9 1.3 2M486 558.4c0 .2.8 1 1.8 1.7 1.5 1.3 1.6 1.2.3-.4s-2.1-2.1-2.1-1.3m31.5 9.6c1 1.1 2 2 2.3 2s-.3-.9-1.3-2-2-2-2.3-2 .3.9 1.3 2m-405.7 17.7c.6.2 1.8.2 2.5 0 .6-.3.1-.5-1.3-.5s-1.9.2-1.2.5m444 3c.7.3 1.6.2 1.9-.1.4-.3-.2-.6-1.3-.5-1.1 0-1.4.3-.6.6m-394.4 70.8c0 12.1.2 16.9.3 10.7.2-6.2.2-16.1 0-22-.1-5.9-.3-.8-.3 11.3M586 641.4c0 .2.8 1 1.8 1.7 1.5 1.3 1.6 1.2.3-.4s-2.1-2.1-2.1-1.3m24.8 8.3c.7.3 1.6.2 1.9-.1.4-.3-.2-.6-1.3-.5-1.1 0-1.4.3-.6.6m125 0c.7.3 1.6.2 1.9-.1.4-.3-.2-.6-1.3-.5-1.1 0-1.4.3-.6.6m258 0c.7.3 1.6.2 1.9-.1.4-.3-.2-.6-1.3-.5-1.1 0-1.4.3-.6.6m-694.4 15.8c0 8.8.2 12.3.3 7.7.2-4.6.2-11.8 0-16-.1-4.2-.3-.5-.3 8.3m441.8-13c0 1.6.2 2.2.5 1.2.2-.9.2-2.3 0-3-.3-.6-.5.1-.5 1.8M721.4 666c0 8.5.2 12 .3 7.7.2-4.2.2-11.2 0-15.5-.1-4.2-.3-.7-.3 7.8m-100.5-12.3c-1.3 1.6-1.2 1.7.4.4.9-.7 1.7-1.5 1.7-1.7 0-.8-.8-.3-2.1 1.3m428.7 5.6c.3 1 .9 1.5 1.2 1.2s0-1.1-.7-1.8c-1-.9-1.1-.8-.5.6M468.4 671c0 5.8.1 8.1.3 5.2.2-2.8.2-7.6 0-10.5-.2-2.8-.3-.5-.3 5.3m-217 1c0 5.2.1 7.4.3 4.7.2-2.6.2-6.8 0-9.5-.2-2.6-.3-.4-.3 4.8m693.8-6c0 1.4.2 1.9.5 1.2.2-.6.2-1.8 0-2.5-.3-.6-.5-.1-.5 1.3m-440.9 7c0 4.7.2 6.6.4 4.2.2-2.3.2-6.1 0-8.5-.2-2.3-.4-.4-.4 4.3m12.8-6.4c0 1.1.3 1.4.6.6.3-.7.2-1.6-.1-1.9-.3-.4-.6.2-.5 1.3m-303.3 2.1c.7.3 1.6.2 1.9-.1.4-.3-.2-.6-1.3-.5-1.1 0-1.4.3-.6.6m477.2 8.7c0 .2.8 1 1.8 1.7 1.5 1.3 1.6 1.2.3-.4s-2.1-2.1-2.1-1.3m11.8 5.3c.7.3 1.6.2 1.9-.1.4-.3-.2-.6-1.3-.5-1.1 0-1.4.3-.6.6m258 0c.7.3 1.6.2 1.9-.1.4-.3-.2-.6-1.3-.5-1.1 0-1.4.3-.6.6m-731.4 49.8c0 12.1.2 16.9.3 10.7.2-6.2.2-16.1 0-22-.1-5.9-.3-.8-.3 11.3m575 10c0 6.6.1 9.2.3 5.7.2-3.4.2-8.8 0-12-.2-3.1-.3-.3-.3 6.3m133.4 21.2c.6.2 1.8.2 2.5 0 .6-.3.1-.5-1.3-.5s-1.9.2-1.2.5"/><path fill-opacity=".2" d="M97.8 371.7c.7.3 1.6.2 1.9-.1.4-.3-.2-.6-1.3-.5-1.1 0-1.4.3-.6.6m587.2 5.7c0 .2.8 1 1.8 1.7 1.5 1.3 1.6 1.2.3-.4s-2.1-2.1-2.1-1.3m-476 1c0 .2.8 1 1.8 1.7 1.5 1.3 1.6 1.2.3-.4s-2.1-2.1-2.1-1.3m277.9 19.3c-1.3 1.6-1.2 1.7.4.4.9-.7 1.7-1.5 1.7-1.7 0-.8-.8-.3-2.1 1.3m143.2 73.9c0 1.1.3 1.4.6.6.3-.7.2-1.6-.1-1.9-.3-.4-.6.2-.5 1.3m0 14c0 1.1.3 1.4.6.6.3-.7.2-1.6-.1-1.9-.3-.4-.6.2-.5 1.3m351.7 11.1c.7.3 1.6.2 1.9-.1.4-.3-.2-.6-1.3-.5-1.1 0-1.4.3-.6.6M754.5 500c1 1.1 2 2 2.3 2s-.3-.9-1.3-2-2-2-2.3-2 .3.9 1.3 2M173 504.5c1.3 1.4 2.6 2.5 2.8 2.5.3 0-.5-1.1-1.8-2.5s-2.6-2.5-2.8-2.5c-.3 0 .5 1.1 1.8 2.5m589.5 3.5c1 1.1 2 2 2.3 2s-.3-.9-1.3-2-2-2-2.3-2 .3.9 1.3 2m482.4 36.7c-1.3 1.6-1.2 1.7.4.4s2.1-2.1 1.3-2.1c-.2 0-1 .8-1.7 1.7m-612 15-2.4 2.8 2.8-2.4c1.5-1.4 2.7-2.6 2.7-2.8 0-.8-.8-.1-3.1 2.4m-438.6 25.5c-.2.5 31.9.8 71.3.8 39.5 0 71.5-.2 71.2-.5-.8-.8-141.9-1.1-142.5-.3M706 585l-30.5.5 31.8.3c17.4.1 31.7 0 31.7-.2 0-1-4.5-1.1-33-.6m344 0-31.5.5 32.3.3c21.4.1 32.1-.1 31.7-.8-.3-.6-.7-.9-.8-.8-.1.2-14.4.5-31.7.8m42.3.2c-.2.5 32.8.7 73.4.6 40.6-.2 62.1-.4 47.8-.5-67.6-.7-120.7-.7-121.2-.1m-1062.6.5c15 .2 39.6.2 54.5 0 15-.1 2.8-.2-27.2-.2s-42.2.1-27.3.2m772.6 0c11.5.2 29.9.2 41 0 11.1-.1 1.8-.2-20.8-.2-22.5 0-31.6.1-20.2.2m77.5 0c5 .2 13.4.2 18.5 0 5-.1.9-.3-9.3-.3s-14.3.2-9.2.3m-320.5 3c.9.2 2.5.2 3.5 0 .9-.3.1-.5-1.8-.5s-2.7.2-1.7.5m-19.9 69.8c0 12.6.2 17.7.3 11.2.2-6.5.2-16.8 0-23-.1-6.2-.3-.9-.3 11.8m-150 1c0 12.1.2 16.9.3 10.7.2-6.2.2-16.1 0-22-.1-5.9-.3-.8-.3 11.3M985 652c0 1.1.4 2 .9 2s.7-.9.4-2-.7-2-.9-2-.4.9-.4 2m12.2.5c0 1.6.2 2.2.5 1.2.2-.9.2-2.3 0-3-.3-.6-.5.1-.5 1.8m-588.4 2.2c.7.3 1.6.2 1.9-.1.4-.3-.2-.6-1.3-.5-1.1 0-1.4.3-.6.6m603 0c.7.3 1.6.2 1.9-.1.4-.3-.2-.6-1.3-.5-1.1 0-1.4.3-.6.6m-842.5 2c.9.2 2.5.2 3.5 0 .9-.3.1-.5-1.8-.5s-2.7.2-1.7.5m642.9 3.3c0 1.4.2 1.9.5 1.2.2-.6.2-1.8 0-2.5-.3-.6-.5-.1-.5 1.3m-452.8 11c0 5.8.1 8.1.3 5.2.2-2.8.2-7.6 0-10.5-.2-2.8-.3-.5-.3 5.3m573 1c0 5.2.1 7.4.3 4.7.2-2.6.2-6.8 0-9.5-.2-2.6-.3-.4-.3 4.8m-736.3 1.6c0 1.1.3 1.4.6.6.3-.7.2-1.6-.1-1.9-.3-.4-.6.2-.5 1.3m-26.3 3.1c1.2.2 3 .2 4 0 .9-.3-.1-.5-2.3-.4-2.2 0-3 .2-1.7.4m553.5 41.8c0 2.2.2 3 .4 1.7.2-1.2.2-3 0-4-.3-.9-.5.1-.4 2.3m-309.2 6.1c0 1.1.3 1.4.6.6.3-.7.2-1.6-.1-1.9-.3-.4-.6.2-.5 1.3m309.3 11.9c0 4.9.1 7.1.3 4.8s.2-6.4 0-9-.3-.8-.3 4.2m-486.6-4.8c.6.2 1.8.2 2.5 0 .6-.3.1-.5-1.3-.5s-1.9.2-1.2.5m198.6 12.8c0 5.5.1 7.6.3 4.7s.2-7.4 0-10-.3-.2-.3 5.3m-90.3-5.9c0 1.1.3 1.4.6.6.3-.7.2-1.6-.1-1.9-.3-.4-.6.2-.5 1.3m16 14c0 1.1.3 1.4.6.6.3-.7.2-1.6-.1-1.9-.3-.4-.6.2-.5 1.3m345 0c0 1.1.3 1.4.6.6.3-.7.2-1.6-.1-1.9-.3-.4-.6.2-.5 1.3m207 0c0 1.1.3 1.4.6.6.3-.7.2-1.6-.1-1.9-.3-.4-.6.2-.5 1.3"/><path fill-opacity=".3" d="M94.8 371.7c.7.3 1.6.2 1.9-.1.4-.3-.2-.6-1.3-.5-1.1 0-1.4.3-.6.6m674 0c.7.3 1.6.2 1.9-.1.4-.3-.2-.6-1.3-.5-1.1 0-1.4.3-.6.6m-138.7 96.9c0 1.1.3 1.4.6.6.3-.7.2-1.6-.1-1.9-.3-.4-.6.2-.5 1.3m34 5c0 1.1.3 1.4.6.6.3-.7.2-1.6-.1-1.9-.3-.4-.6.2-.5 1.3m0 10c0 1.1.3 1.4.6.6.3-.7.2-1.6-.1-1.9-.3-.4-.6.2-.5 1.3m-34 5c0 1.1.3 1.4.6.6.3-.7.2-1.6-.1-1.9-.3-.4-.6.2-.5 1.3m347.2 8.1c.9.2 2.3.2 3 0 .6-.3-.1-.5-1.8-.5-1.6 0-2.2.2-1.2.5m-615 7c.9.2 2.3.2 3 0 .6-.3-.1-.5-1.8-.5-1.6 0-2.2.2-1.2.5m14 9c.9.2 2.3.2 3 0 .6-.3-.1-.5-1.8-.5-1.6 0-2.2.2-1.2.5m-237.4 58c-1.3 1.6-1.2 1.7.4.4.9-.7 1.7-1.5 1.7-1.7 0-.8-.8-.3-2.1 1.3m763.3 5.3c0 1.4.2 1.9.5 1.2.2-.6.2-1.8 0-2.5-.3-.6-.5-.1-.5 1.3m167.3 2c1 1.1 2 2 2.3 2s-.3-.9-1.3-2-2-2-2.3-2 .3.9 1.3 2m-500.2 73c0 4.7.2 6.6.4 4.2.2-2.3.2-6.1 0-8.5-.2-2.3-.4-.4-.4 4.3m184-4.5c0 2.2.2 3 .4 1.7.2-1.2.2-3 0-4-.3-.9-.5.1-.4 2.3m226.1 19c0 8.8.2 12.3.3 7.7.2-4.6.2-11.8 0-16-.1-4.2-.3-.5-.3 8.3m-452.6-10.8c.6.2 1.8.2 2.5 0 .6-.3.1-.5-1.3-.5s-1.9.2-1.2.5m226.6 9.3c0 5.2.1 7.4.3 4.7.2-2.6.2-6.8 0-9.5-.2-2.6-.3-.4-.3 4.8m-270 6c0 6.3.1 8.9.3 5.7.2-3.1.2-8.3 0-11.5-.2-3.1-.3-.5-.3 5.8m89.4-5.3c.7.3 1.6.2 1.9-.1.4-.3-.2-.6-1.3-.5-1.1 0-1.4.3-.6.6M320.3 673c0 4.7.2 6.6.4 4.2.2-2.3.2-6.1 0-8.5-.2-2.3-.4-.4-.4 4.3m249 0c0 4.7.2 6.6.4 4.2.2-2.3.2-6.1 0-8.5-.2-2.3-.4-.4-.4 4.3m-285.1-2c0 1.9.2 2.7.5 1.7.2-.9.2-2.5 0-3.5-.3-.9-.5-.1-.5 1.8m248.9 8.6c0 1.1.3 1.4.6.6.3-.7.2-1.6-.1-1.9-.3-.4-.6.2-.5 1.3M367.4 731c0 12.9.2 18.2.3 11.7.2-6.4.2-17 0-23.5-.1-6.4-.3-1.1-.3 11.8m498 1.5c0 12.1.2 16.9.3 10.7.2-6.2.2-16.1 0-22-.1-5.9-.3-.8-.3 11.3m-417.1-17.8c.9.2 2.3.2 3 0 .6-.3-.1-.5-1.8-.5-1.6 0-2.2.2-1.2.5m277 0c.9.2 2.3.2 3 0 .6-.3-.1-.5-1.8-.5-1.6 0-2.2.2-1.2.5m-398 8c.9.2 2.5.2 3.5 0 .9-.3.1-.5-1.8-.5s-2.7.2-1.7.5m83 0c.9.2 2.3.2 3 0 .6-.3-.1-.5-1.8-.5-1.6 0-2.2.2-1.2.5m32 0c.9.2 2.3.2 3 0 .6-.3-.1-.5-1.8-.5-1.6 0-2.2.2-1.2.5m14.4 0c3.8.3 5.3.8 5.6 2.1q.45 1.8.3-.3c-.1-1.7-.8-2-5.6-2.1l-5.5-.1zm220 0c2.2.4 2.3.8 2.6 15.6l.3 15.2-.1-15.5v-15.5l-2.5-.1q-3.15-.15-.3.3m43.1 0c.6.2 1.8.2 2.5 0 .6-.3.1-.5-1.3-.5s-1.9.2-1.2.5m12.5 0c1.5.2 3.9.2 5.5 0 1.5-.2.2-.4-2.8-.4s-4.3.2-2.7.4m17 0c.9.2 2.3.2 3 0 .6-.3-.1-.5-1.8-.5-1.6 0-2.2.2-1.2.5m51 0c.9.2 2.3.2 3 0 .6-.3-.1-.5-1.8-.5-1.6 0-2.2.2-1.2.5m146.5 0c1.8.2 4.5.2 6 0s0-.4-3.3-.4-4.5.2-2.7.4M291.2 735c0 1.4.2 1.9.5 1.2.2-.6.2-1.8 0-2.5-.3-.6-.5-.1-.5 1.3m411.6 1.7c.7.3 1.6.2 1.9-.1.4-.3-.2-.6-1.3-.5-1.1 0-1.4.3-.6.6m207 0c.7.3 1.6.2 1.9-.1.4-.3-.2-.6-1.3-.5-1.1 0-1.4.3-.6.6m49.4 1.3c0 1.4.2 1.9.5 1.2.2-.6.2-1.8 0-2.5-.3-.6-.5-.1-.5 1.3m-193.1.6c0 1.1.3 1.4.6.6.3-.7.2-1.6-.1-1.9-.3-.4-.6.2-.5 1.3m147.1 4.9c0 1.6.2 2.2.5 1.2.2-.9.2-2.3 0-3-.3-.6-.5.1-.5 1.8"/><path fill-opacity=".4" d="M558.8 368.7c1.2.2 3 .2 4 0 .9-.3-.1-.5-2.3-.4-2.2 0-3 .2-1.7.4M4.2 371.5c.7.7 89 .6 89.7 0 .2-.3-20-.5-44.9-.5s-45.1.2-44.8.5m207.6.2c9.4.2 25 .2 34.5 0 9.4-.1 1.7-.3-17.3-.3s-26.7.2-17.2.3m80 0c13.3.2 35.1.2 48.5 0 13.3-.1 2.4-.2-24.3-.2s-37.6.1-24.2.2m398 0c9 .2 23.4.2 32 0 8.6-.1 1.3-.3-16.3-.3s-24.7.2-15.7.3m57 0c3.9.2 10.5.2 14.5 0 3.9-.1.7-.3-7.3-.3s-11.2.2-7.2.3m226 0c1.7.2 4.7.2 6.5 0 1.7-.2.3-.4-3.3-.4s-5 .2-3.2.4m118.4-.1c.7.6 63 .5 63.7-.1.2-.3-14.1-.5-31.9-.5s-32.1.2-31.8.6M828 390.4c0 .2.8 1 1.8 1.7 1.5 1.3 1.6 1.2.3-.4s-2.1-2.1-2.1-1.3m309.5 96.6c0 52.5.1 74 .2 47.7.2-26.2.2-69.2 0-95.5-.1-26.2-.2-4.7-.2 47.8M632 396.4c0 .2.8 1 1.8 1.7 1.5 1.3 1.6 1.2.3-.4s-2.1-2.1-2.1-1.3M490.3 478c0 3.6.2 5 .4 3.2.2-1.7.2-4.7 0-6.5-.2-1.7-.4-.3-.4 3.3m174 .5c0 2.2.2 3 .4 1.7.2-1.2.2-3 0-4-.3-.9-.5.1-.4 2.3m-237.9 177c0 11 .2 15.6.3 10.3.2-5.3.2-14.3 0-20-.1-5.7-.3-1.3-.3 9.7m6-.5c0 10.7.2 15.1.3 9.7.2-5.3.2-14.1 0-19.5-.1-5.3-.3-.9-.3 9.8m-243.3-6.4c0 1.1.3 1.4.6.6.3-.7.2-1.6-.1-1.9-.3-.4-.6.2-.5 1.3m19.7 1.1c.7.3 1.6.2 1.9-.1.4-.3-.2-.6-1.3-.5-1.1 0-1.4.3-.6.6m69 0c.7.3 1.6.2 1.9-.1.4-.3-.2-.6-1.3-.5-1.1 0-1.4.3-.6.6m131 0c.7.3 1.6.2 1.9-.1.4-.3-.2-.6-1.3-.5-1.1 0-1.4.3-.6.6m46 0c.7.3 1.6.2 1.9-.1.4-.3-.2-.6-1.3-.5-1.1 0-1.4.3-.6.6m177 0c.7.3 1.6.2 1.9-.1.4-.3-.2-.6-1.3-.5-1.1 0-1.4.3-.6.6m70 0c.7.3 1.6.2 1.9-.1.4-.3-.2-.6-1.3-.5-1.1 0-1.4.3-.6.6m310 0c.7.3 1.6.2 1.9-.1.4-.3-.2-.6-1.3-.5-1.1 0-1.4.3-.6.6m-706.7 2.9c0 1.1.3 1.4.6.6.3-.7.2-1.6-.1-1.9-.3-.4-.6.2-.5 1.3m265.7 7.1c.6.2 1.8.2 2.5 0 .6-.3.1-.5-1.3-.5s-1.9.2-1.2.5m395.3 1.9c0 1.1.3 1.4.6.6.3-.7.2-1.6-.1-1.9-.3-.4-.6.2-.5 1.3m-639.7 9.9c0 5.5.1 7.6.3 4.7s.2-7.4 0-10-.3-.2-.3 5.3m314.8-5.5c0 1.4.2 1.9.5 1.2.2-.6.2-1.8 0-2.5-.3-.6-.5-.1-.5 1.3m6 0c0 1.4.2 1.9.5 1.2.2-.6.2-1.8 0-2.5-.3-.6-.5-.1-.5 1.3m-414.5 44.7c1.8.2 5 .2 7 0 2.1-.2.7-.4-3.2-.4-3.8 0-5.5.2-3.8.4m291.9.1c-.2.4 1.1.6 3 .4s3.4-.6 3.4-.8c0-.8-5.9-.4-6.4.4m342.7-.1c.9.2 2.3.2 3 0 .6-.3-.1-.5-1.8-.5-1.6 0-2.2.2-1.2.5m-629.5 5c1.2.2 3 .2 4 0 .9-.3-.1-.5-2.3-.4-2.2 0-3 .2-1.7.4M408.4 738c0 8.5.2 12 .3 7.7.2-4.2.2-11.2 0-15.5-.1-4.2-.3-.7-.3 7.8m32-12.5c.1 1.5.8 2 2.9 2.1 2.4.1 2.4.1.3-.3-1.4-.2-2.7-1.2-2.9-2.1q-.45-1.8-.3.3m14.9 2.2c1.5.2 3.7.2 5 0 1.2-.2 0-.4-2.8-.4-2.7 0-3.8.2-2.2.4m264.5 0c.6.2 1.8.2 2.5 0 .6-.3.1-.5-1.3-.5s-1.9.2-1.2.5m12.5 0c1.5.2 3.9.2 5.5 0 1.5-.2.2-.4-2.8-.4s-4.3.2-2.7.4m-317.9 14.8c0 6.6.1 9.2.3 5.7.2-3.4.2-8.8 0-12-.2-3.1-.3-.3-.3 6.3m-19.3-8.9c0 1.1.3 1.4.6.6.3-.7.2-1.6-.1-1.9-.3-.4-.6.2-.5 1.3m317.3 9.9c0 6 .1 8.4.3 5.2s.2-8.1 0-11-.3-.3-.3 5.8m-6.8-7.8c-.6 1.4-.5 1.5.5.6.7-.7 1-1.5.7-1.8s-.9.2-1.2 1.2m-181.8 3c2.3.2 6.1.2 8.5 0 2.3-.2.4-.4-4.3-.4s-6.6.2-4.2.4m182.4 4.8c0 1.6.2 2.2.5 1.2.2-.9.2-2.3 0-3-.3-.6-.5.1-.5 1.8m-183.4.2c2.8.2 7.6.2 10.5 0 2.8-.2.5-.3-5.3-.3s-8.1.1-5.2.3m416 0c.7.3 1.6.2 1.9-.1.4-.3-.2-.6-1.3-.5-1.1 0-1.4.3-.6.6"/><path fill-opacity=".5" d="M318.5 412c0 20.6.1 29.1.2 18.7.2-10.3.2-27.1 0-37.5-.1-10.3-.2-1.8-.2 18.8M602 387.4c0 .2.8 1 1.8 1.7 1.5 1.3 1.6 1.2.3-.4s-2.1-2.1-2.1-1.3m-432.7 36.1c0 2.2.2 3 .4 1.7.2-1.2.2-3 0-4-.3-.9-.5.1-.4 2.3m641.8 9.1c0 1.1.3 1.4.6.6.3-.7.2-1.6-.1-1.9-.3-.4-.6.2-.5 1.3m-321 38c0 1.1.3 1.4.6.6.3-.7.2-1.6-.1-1.9-.3-.4-.6.2-.5 1.3m-171.6 49.9c0 26.9.1 37.8.2 24.2.2-13.7.2-35.7 0-49-.1-13.3-.2-2.2-.2 24.8M490.2 486c0 1.4.2 1.9.5 1.2.2-.6.2-1.8 0-2.5-.3-.6-.5-.1-.5 1.3M333 490.4c0 .2.8 1 1.8 1.7 1.5 1.3 1.6 1.2.3-.4s-2.1-2.1-2.1-1.3m-1 4c0 .2.8 1 1.8 1.7 1.5 1.3 1.6 1.2.3-.4s-2.1-2.1-2.1-1.3m591.9 29.3c-1.3 1.6-1.2 1.7.4.4s2.1-2.1 1.3-2.1c-.2 0-1 .8-1.7 1.7m-495.6 112c.9.2 2.3.2 3 0 .6-.3-.1-.5-1.8-.5-1.6 0-2.2.2-1.2.5m107 0c.9.2 2.3.2 3 0 .6-.3-.1-.5-1.8-.5-1.6 0-2.2.2-1.2.5m-57.8 30.5v15.3l3 .1c2.8.2 2.8.2.3-.3l-2.7-.4-.4-15-.3-14.9zm182.6-13.6c0 1.1.3 1.4.6.6.3-.7.2-1.6-.1-1.9-.3-.4-.6.2-.5 1.3m67.1.4c0 1.4.2 1.9.5 1.2.2-.6.2-1.8 0-2.5-.3-.6-.5-.1-.5 1.3m12 0c0 1.4.2 1.9.5 1.2.2-.6.2-1.8 0-2.5-.3-.6-.5-.1-.5 1.3m-569.4 8.7c1.2.2 3.2.2 4.5 0 1.2-.2.2-.4-2.3-.4s-3.5.2-2.2.4m120.4 9-.2 10.2-2.7.4-2.8.4 2.8.2c1.5 0 3-.5 3.3-1.2.3-.8.3-5.6.1-10.8l-.3-9.4zm695 0-.2 10.2-2.7.4-2.8.4 2.8.2c1.5 0 3-.5 3.3-1.2.3-.8.3-5.6.1-10.8l-.3-9.4zm-286.4-3c2.9.2 7.4.2 10 0s.2-.3-5.3-.3-7.6.1-4.7.3m258 0c2.9.2 7.4.2 10 0s.2-.3-5.3-.3-7.6.1-4.7.3m-691.7 5.9c0 1.1.3 1.4.6.6.3-.7.2-1.6-.1-1.9-.3-.4-.6.2-.5 1.3m-100.4 8.1c1.8.2 5 .2 7 0 2.1-.2.7-.4-3.2-.4-3.8 0-5.5.2-3.8.4m53.1 0c.6.2 1.8.2 2.5 0 .6-.3.1-.5-1.3-.5s-1.9.2-1.2.5m15.5 0c.9.2 2.3.2 3 0 .6-.3-.1-.5-1.8-.5-1.6 0-2.2.2-1.2.5m20 0c.9.2 2.3.2 3 0 .6-.3-.1-.5-1.8-.5-1.6 0-2.2.2-1.2.5m48 0c.9.2 2.3.2 3 0 .6-.3-.1-.5-1.8-.5-1.6 0-2.2.2-1.2.5m21 0c.9.2 2.3.2 3 0 .6-.3-.1-.5-1.8-.5-1.6 0-2.2.2-1.2.5m33 0c.9.2 2.3.2 3 0 .6-.3-.1-.5-1.8-.5-1.6 0-2.2.2-1.2.5m30 0c.9.2 2.3.2 3 0 .6-.3-.1-.5-1.8-.5-1.6 0-2.2.2-1.2.5m79 0c.9.2 2.3.2 3 0 .6-.3-.1-.5-1.8-.5-1.6 0-2.2.2-1.2.5m36 0c.9.2 2.3.2 3 0 .6-.3-.1-.5-1.8-.5-1.6 0-2.2.2-1.2.5m35 0c.9.2 2.3.2 3 0 .6-.3-.1-.5-1.8-.5-1.6 0-2.2.2-1.2.5m30 0c.9.2 2.3.2 3 0 .6-.3-.1-.5-1.8-.5-1.6 0-2.2.2-1.2.5m32 0c.9.2 2.3.2 3 0 .6-.3-.1-.5-1.8-.5-1.6 0-2.2.2-1.2.5m126 0c.9.2 2.3.2 3 0 .6-.3-.1-.5-1.8-.5-1.6 0-2.2.2-1.2.5m147 0c.9.2 2.3.2 3 0 .6-.3-.1-.5-1.8-.5-1.6 0-2.2.2-1.2.5m22 0c.9.2 2.3.2 3 0 .6-.3-.1-.5-1.8-.5-1.6 0-2.2.2-1.2.5m21 0c.9.2 2.3.2 3 0 .6-.3-.1-.5-1.8-.5-1.6 0-2.2.2-1.2.5m21 0c.9.2 2.3.2 3 0 .6-.3-.1-.5-1.8-.5-1.6 0-2.2.2-1.2.5m-573 33.3c0 4.1.2 5.8.4 3.7.2-2 .2-5.4 0-7.5-.2-2-.4-.3-.4 3.8m312.1 23c0 8.5.2 12 .3 7.7.2-4.2.2-11.2 0-15.5-.1-4.2-.3-.7-.3 7.8m-312-1.5c0 4.9.1 7.1.3 4.8s.2-6.4 0-9-.3-.8-.3 4.2m558 7.5c0 5.8.1 8.1.3 5.2.2-2.8.2-7.6 0-10.5-.2-2.8-.3-.5-.3 5.3m-645.1-8.3c2 .2 5.4.2 7.5 0 2-.2.3-.4-3.8-.4s-5.8.2-3.7.4m110 0c2 .2 5.4.2 7.5 0 2-.2.3-.4-3.8-.4s-5.8.2-3.7.4m-148.3.7c0 .2 1.3.6 2.9.8 1.7.2 2.8.1 2.5-.4-.5-.8-5.4-1.2-5.4-.4m376.2 1.6c0 1.4.2 1.9.5 1.2.2-.6.2-1.8 0-2.5-.3-.6-.5-.1-.5 1.3m147.9.6c0 1.1.3 1.4.6.6.3-.7.2-1.6-.1-1.9-.3-.4-.6.2-.5 1.3m205 0c0 1.1.3 1.4.6.6.3-.7.2-1.6-.1-1.9-.3-.4-.6.2-.5 1.3"/><path fill-opacity=".7" d="M53.5 375.3c-.3.7-.4 12.9-.2 27.2l.2 26 .3-26.7.2-26.8 18.8-.3 18.7-.2-18.8-.3c-14.4-.1-18.9.1-19.2 1.1m275.7-.6c5.9.2 15.8.2 22 0 6.2-.1 1.4-.3-10.7-.3s-17.2.2-11.3.3m397.6 0c2.8.2 7.6.2 10.5 0 2.8-.2.5-.3-5.3-.3s-8.1.1-5.2.3m22 0c3.4.2 8.8.2 12 0 3.1-.2.3-.3-6.3-.3s-9.2.1-5.7.3M122 385.4c0 .2.8 1 1.8 1.7 1.5 1.3 1.6 1.2.3-.4s-2.1-2.1-2.1-1.3m394.9 3.3c-1.3 1.6-1.2 1.7.4.4.9-.7 1.7-1.5 1.7-1.7 0-.8-.8-.3-2.1 1.3M691.5 476c0 48.1.1 67.8.2 43.8.2-24.1.2-63.5 0-87.5-.1-24.1-.2-4.4-.2 43.7m-638 37.5c0 37.9.1 53.3.2 34.2.2-19.2.2-50.2 0-69-.1-18.8-.2-3.2-.2 34.8m713.3-22.8c.7.3 1.6.2 1.9-.1.4-.3-.2-.6-1.3-.5-1.1 0-1.4.3-.6.6m-582.5 43.8c0 2.2.2 3 .4 1.7.2-1.2.2-3 0-4-.3-.9-.5.1-.4 2.3m418.6 34.2-2.4 2.8 2.8-2.4c1.5-1.4 2.7-2.6 2.7-2.8 0-.8-.8-.1-3.1 2.4m-219.5 90.8c0 12.1.2 16.9.3 10.7.2-6.2.2-16.1 0-22-.1-5.9-.3-.8-.3 11.3m180 0c0 12.1.2 16.9.3 10.7.2-6.2.2-16.1 0-22-.1-5.9-.3-.8-.3 11.3m-327.3-6.9c0 1.1.3 1.4.6.6.3-.7.2-1.6-.1-1.9-.3-.4-.6.2-.5 1.3m365.1.9c0 1.6.2 2.2.5 1.2.2-.9.2-2.3 0-3-.3-.6-.5.1-.5 1.8M305.4 670c0 6.3.1 8.9.3 5.7.2-3.1.2-8.3 0-11.5-.2-3.1-.3-.5-.3 5.8m156.7-7.4c0 1.1.3 1.4.6.6.3-.7.2-1.6-.1-1.9-.3-.4-.6.2-.5 1.3m265.3 8.4c0 5.8.1 8.1.3 5.2.2-2.8.2-7.6 0-10.5-.2-2.8-.3-.5-.3 5.3m-470 1c0 5.2.1 7.4.3 4.7.2-2.6.2-6.8 0-9.5-.2-2.6-.3-.4-.3 4.8m90.4-7.3c.7.3 1.6.2 1.9-.1.4-.3-.2-.6-1.3-.5-1.1 0-1.4.3-.6.6m109 0c.7.3 1.6.2 1.9-.1.4-.3-.2-.6-1.3-.5-1.1 0-1.4.3-.6.6m41.6 7.8c0 4.9.1 7.1.3 4.8s.2-6.4 0-9-.3-.8-.3 4.2m12.8-6.5c0 1.4.2 1.9.5 1.2.2-.6.2-1.8 0-2.5-.3-.6-.5-.1-.5 1.3m-49 5c0 1.9.2 2.7.5 1.7.2-.9.2-2.5 0-3.5-.3-.9-.5-.1-.5 1.8m336.2 67c0 8.5.2 12 .3 7.7.2-4.2.2-11.2 0-15.5-.1-4.2-.3-.7-.3 7.8m-442.6-11.3c.7.3 1.6.2 1.9-.1.4-.3-.2-.6-1.3-.5-1.1 0-1.4.3-.6.6m-58.7 3.9c0 1.1.3 1.4.6.6.3-.7.2-1.6-.1-1.9-.3-.4-.6.2-.5 1.3m256 0c0 1.1.3 1.4.6.6.3-.7.2-1.6-.1-1.9-.3-.4-.6.2-.5 1.3m336.1 20.9c0 1.6.2 2.2.5 1.2.2-.9.2-2.3 0-3-.3-.6-.5.1-.5 1.8"/><path fill-opacity=".8" d="M721.4 405c0 16.8.2 23.6.3 15.2.2-8.3.2-22.1 0-30.5-.1-8.3-.3-1.5-.3 15.3m75.1-18c1 1.1 2 2 2.3 2s-.3-.9-1.3-2-2-2-2.3-2 .3.9 1.3 2m-640 3c1 1.1 2 2 2.3 2s-.3-.9-1.3-2-2-2-2.3-2 .3.9 1.3 2m-133 87c0 47 .1 66.3.2 42.8.2-23.6.2-62 0-85.5-.1-23.6-.2-4.3-.2 42.7m41-21c1 1.1 2 2 2.3 2s-.3-.9-1.3-2-2-2-2.3-2 .3.9 1.3 2m-3.5.4c0 .2.8 1 1.8 1.7 1.5 1.3 1.6 1.2.3-.4s-2.1-2.1-2.1-1.3M721.5 513c0 30.5.1 43 .2 27.7.2-15.2.2-40.2 0-55.5-.1-15.2-.2-2.7-.2 27.8m55.3-14.3c.7.3 1.6.2 1.9-.1.4-.3-.2-.6-1.3-.5-1.1 0-1.4.3-.6.6m7 0c.7.3 1.6.2 1.9-.1.4-.3-.2-.6-1.3-.5-1.1 0-1.4.3-.6.6m-632.6 37.8c0 1.6.2 2.2.5 1.2.2-.9.2-2.3 0-3-.3-.6-.5.1-.5 1.8M485 556.3c0 .2 1.5 1.6 3.3 3.3l3.2 2.9-2.9-3.3c-2.8-3-3.6-3.7-3.6-2.9m31 11.1c0 .2.8 1 1.8 1.7 1.5 1.3 1.6 1.2.3-.4s-2.1-2.1-2.1-1.3m362.4 12.8-1.9 2.3 2.3-1.9c1.2-1.1 2.2-2.1 2.2-2.3 0-.8-.8-.2-2.6 1.9m-320.6 5.5c.7.3 1.6.2 1.9-.1.4-.3-.2-.6-1.3-.5-1.1 0-1.4.3-.6.6m5 0c.7.3 1.6.2 1.9-.1.4-.3-.2-.6-1.3-.5-1.1 0-1.4.3-.6.6m-393 57c1.2.2 3 .2 4 0 .9-.3-.1-.5-2.3-.4-2.2 0-3 .2-1.7.4m579.5 0c.9.2 2.3.2 3 0 .6-.3-.1-.5-1.8-.5-1.6 0-2.2.2-1.2.5m317.8 3.9c0 1.1.3 1.4.6.6.3-.7.2-1.6-.1-1.9-.3-.4-.6.2-.5 1.3m-22 2c0 1.1.3 1.4.6.6.3-.7.2-1.6-.1-1.9-.3-.4-.6.2-.5 1.3m-812.3 2.1c.6.2 1.8.2 2.5 0 .6-.3.1-.5-1.3-.5s-1.9.2-1.2.5m68.5 0c.9.2 2.3.2 3 0 .6-.3-.1-.5-1.8-.5-1.6 0-2.2.2-1.2.5m178 0c.9.2 2.3.2 3 0 .6-.3-.1-.5-1.8-.5-1.6 0-2.2.2-1.2.5m118.5 0c.6.2 1.8.2 2.5 0 .6-.3.1-.5-1.3-.5s-1.9.2-1.2.5m58.5 0c.9.2 2.3.2 3 0 .6-.3-.1-.5-1.8-.5-1.6 0-2.2.2-1.2.5m67 0c.9.2 2.3.2 3 0 .6-.3-.1-.5-1.8-.5-1.6 0-2.2.2-1.2.5m20 0c.9.2 2.3.2 3 0 .6-.3-.1-.5-1.8-.5-1.6 0-2.2.2-1.2.5m12 0c1.5.2 3.9.2 5.5 0 1.5-.2.2-.4-2.8-.4s-4.3.2-2.7.4m13 0c.9.2 2.3.2 3 0 .6-.3-.1-.5-1.8-.5-1.6 0-2.2.2-1.2.5m22 0c.9.2 2.3.2 3 0 .6-.3-.1-.5-1.8-.5-1.6 0-2.2.2-1.2.5m70.5 0c.6.2 1.8.2 2.5 0 .6-.3.1-.5-1.3-.5s-1.9.2-1.2.5m20.5 0c.9.2 2.3.2 3 0 .6-.3-.1-.5-1.8-.5-1.6 0-2.2.2-1.2.5m20.5 0c.6.2 1.8.2 2.5 0 .6-.3.1-.5-1.3-.5s-1.9.2-1.2.5m12 0c.6.2 1.8.2 2.5 0 .6-.3.1-.5-1.3-.5s-1.9.2-1.2.5m67.5 0c.9.2 2.3.2 3 0 .6-.3-.1-.5-1.8-.5-1.6 0-2.2.2-1.2.5m68.8 8c.7 1.2 1.5 2 1.8 1.7.3-.2-.3-1.2-1.3-2.2-1.7-1.6-1.8-1.6-.5.5m-389.7 8.8c0 4.9.1 7.1.3 4.8s.2-6.4 0-9-.3-.8-.3 4.2m257 2.5c0 6.3.1 8.9.3 5.7.2-3.1.2-8.3 0-11.5-.2-3.1-.3-.5-.3 5.8m-696 1c0 5.8.1 8.1.3 5.2.2-2.8.2-7.6 0-10.5-.2-2.8-.3-.5-.3 5.3m-8.6-6.3c.6.2 1.8.2 2.5 0 .6-.3.1-.5-1.3-.5s-1.9.2-1.2.5m69 0c.7.3 1.6.2 1.9-.1.4-.3-.2-.6-1.3-.5-1.1 0-1.4.3-.6.6m69 0c.7.3 1.6.2 1.9-.1.4-.3-.2-.6-1.3-.5-1.1 0-1.4.3-.6.6m109 0c.7.3 1.6.2 1.9-.1.4-.3-.2-.6-1.3-.5-1.1 0-1.4.3-.6.6m591.1 1c-1.3 1.6-1.2 1.7.4.4s2.1-2.1 1.3-2.1c-.2 0-1 .8-1.7 1.7m-716.8 7.9c0 1.1.3 1.4.6.6.3-.7.2-1.6-.1-1.9-.3-.4-.6.2-.5 1.3m326.2 13.9c0 3.8.2 5.3.4 3.2.2-2 .2-5.2 0-7-.2-1.7-.4-.1-.4 3.8m-214 31.5c0 2.5.2 3.5.4 2.2.2-1.2.2-3.2 0-4.5-.2-1.2-.4-.2-.4 2.3m271.9 6c0 1.4.2 1.9.5 1.2.2-.6.2-1.8 0-2.5-.3-.6-.5-.1-.5 1.3m237 0c0 1.4.2 1.9.5 1.2.2-.6.2-1.8 0-2.5-.3-.6-.5-.1-.5 1.3m-559.2-.6c0 .2.8 1 1.8 1.7 1.5 1.3 1.6 1.2.3-.4s-2.1-2.1-2.1-1.3m302.8 2.3c.7.3 1.6.2 1.9-.1.4-.3-.2-.6-1.3-.5-1.1 0-1.4.3-.6.6m207 0c.7.3 1.6.2 1.9-.1.4-.3-.2-.6-1.3-.5-1.1 0-1.4.3-.6.6m-459.4 9.8c0 4.9.1 7.1.3 4.8s.2-6.4 0-9-.3-.8-.3 4.2m200.8 1.5c0 1.4.2 1.9.5 1.2.2-.6.2-1.8 0-2.5-.3-.6-.5-.1-.5 1.3m142.9.6c0 1.1.3 1.4.6.6.3-.7.2-1.6-.1-1.9-.3-.4-.6.2-.5 1.3"/><path fill-opacity=".9" d="M549.8 369.7c.7.3 1.6.2 1.9-.1.4-.3-.2-.6-1.3-.5-1.1 0-1.4.3-.6.6m-456 5c.7.3 1.6.2 1.9-.1.4-.3-.2-.6-1.3-.5-1.1 0-1.4.3-.6.6m187.2 1.7c0 .2.8 1 1.8 1.7 1.5 1.3 1.6 1.2.3-.4s-2.1-2.1-2.1-1.3m405.5 1.6c1 1.1 2 2 2.3 2s-.3-.9-1.3-2-2-2-2.3-2 .3.9 1.3 2m-476 1c1 1.1 2 2 2.3 2s-.3-.9-1.3-2-2-2-2.3-2 .3.9 1.3 2m38.4-.3c-1.3 1.6-1.2 1.7.4.4.9-.7 1.7-1.5 1.7-1.7 0-.8-.8-.3-2.1 1.3M828 391.5c1.9 1.9 3.6 3.5 3.9 3.5s-1-1.6-2.9-3.5-3.6-3.5-3.9-3.5 1 1.6 2.9 3.5M422.5 393c2.1 2.2 4.1 4 4.4 4s-1.3-1.8-3.4-4-4.1-4-4.4-4 1.3 1.8 3.4 4m210 5c2.7 2.7 5.1 5 5.4 5s-1.7-2.3-4.4-5c-2.7-2.8-5.1-5-5.4-5s1.7 2.2 4.4 5m-145.1.2-2.9 3.3 3.3-2.9c1.7-1.7 3.2-3.1 3.2-3.3 0-.8-.8-.1-3.6 2.9m323.7 25.4c0 1.1.3 1.4.6.6.3-.7.2-1.6-.1-1.9-.3-.4-.6.2-.5 1.3m33.2 12.4c0 2.5.2 3.5.4 2.2.2-1.2.2-3.2 0-4.5-.2-1.2-.4-.2-.4 2.3m-436 3c0 3 .2 4.3.4 2.7.2-1.5.2-3.9 0-5.5-.2-1.5-.4-.2-.4 2.8m312.8-2.4c0 1.1.3 1.4.6.6.3-.7.2-1.6-.1-1.9-.3-.4-.6.2-.5 1.3m90 6c0 1.1.3 1.4.6.6.3-.7.2-1.6-.1-1.9-.3-.4-.6.2-.5 1.3m-181 16c0 1.1.3 1.4.6.6.3-.7.2-1.6-.1-1.9-.3-.4-.6.2-.5 1.3m-140 3c0 1.1.3 1.4.6.6.3-.7.2-1.6-.1-1.9-.3-.4-.6.2-.5 1.3m-33 9c0 1.1.3 1.4.6.6.3-.7.2-1.6-.1-1.9-.3-.4-.6.2-.5 1.3m372.8 8.1c-1.3 1.6-1.2 1.7.4.4s2.1-2.1 1.3-2.1c-.2 0-1 .8-1.7 1.7m-5 5c-1.3 1.6-1.2 1.7.4.4.9-.7 1.7-1.5 1.7-1.7 0-.8-.8-.3-2.1 1.3m-367.8 2.9c0 1.1.3 1.4.6.6.3-.7.2-1.6-.1-1.9-.3-.4-.6.2-.5 1.3m286.5 2.6c.3.5 1 .6 1.5.3 1.3-.9 1.1-1.2-.6-1.2-.8 0-1.2.4-.9.9M329 490.4c0 .2.8 1 1.8 1.7 1.5 1.3 1.6 1.2.3-.4s-2.1-2.1-2.1-1.3m62.4 2.8-2.9 3.3 3.3-2.9c3-2.8 3.7-3.6 2.9-3.6-.2 0-1.6 1.5-3.3 3.2m379.4-2.5c.7.3 1.6.2 1.9-.1.4-.3-.2-.6-1.3-.5-1.1 0-1.4.3-.6.6m-348.9 4-3.4 3.8 3.8-3.4c2-1.9 3.7-3.6 3.7-3.8 0-.8-.8 0-4.1 3.4m68.2.9c0 1.1.3 1.4.6.6.3-.7.2-1.6-.1-1.9-.3-.4-.6.2-.5 1.3M135.5 499c2.1 2.2 4.1 4 4.4 4s-1.3-1.8-3.4-4-4.1-4-4.4-4 1.3 1.8 3.4 4m623 6c4.9 4.9 9.2 9 9.5 9 .2 0-3.6-4.1-8.5-9-4.9-5-9.2-9-9.5-9-.2 0 3.6 4 8.5 9m-128.4-6.4c0 1.1.3 1.4.6.6.3-.7.2-1.6-.1-1.9-.3-.4-.6.2-.5 1.3m149.7.1c.6.2 1.8.2 2.5 0 .6-.3.1-.5-1.3-.5s-1.9.2-1.2.5m198 3c1.2.2 3.2.2 4.5 0 1.2-.2.2-.4-2.3-.4s-3.5.2-2.2.4m-807.8.6c0 .2 1.5 1.6 3.3 3.3l3.2 2.9-2.9-3.3c-2.8-3-3.6-3.7-3.6-2.9m199.8 9.4c.7.3 1.6.2 1.9-.1.4-.3-.2-.6-1.3-.5-1.1 0-1.4.3-.6.6m550.1 9-3.4 3.8 3.8-3.4c3.4-3.3 4.2-4.1 3.4-4.1-.2 0-1.9 1.7-3.8 3.7M773 518.4c0 .2.8 1 1.8 1.7 1.5 1.3 1.6 1.2.3-.4s-2.1-2.1-2.1-1.3m-621.9 14.2c0 1.1.3 1.4.6.6.3-.7.2-1.6-.1-1.9-.3-.4-.6.2-.5 1.3m.1 8.4c0 1.4.2 1.9.5 1.2.2-.6.2-1.8 0-2.5-.3-.6-.5-.1-.5 1.3m1092.7 5.7-2.4 2.8 2.8-2.4c2.5-2.3 3.2-3.1 2.4-3.1-.2 0-1.4 1.2-2.8 2.7m-436.9-.3c0 .2.8 1 1.8 1.7 1.5 1.3 1.6 1.2.3-.4s-2.1-2.1-2.1-1.3m427.9 8.3c-1.3 1.6-1.2 1.7.4.4s2.1-2.1 1.3-2.1c-.2 0-1 .8-1.7 1.7m-602 4-3.4 3.8 3.8-3.4c3.4-3.3 4.2-4.1 3.4-4.1-.2 0-1.9 1.7-3.8 3.7m-461.5 8.5-2.9 3.3 3.3-2.9c3-2.8 3.7-3.6 2.9-3.6-.2 0-1.6 1.5-3.3 3.2m341.6-2.8c0 .2.8 1 1.8 1.7 1.5 1.3 1.6 1.2.3-.4s-2.1-2.1-2.1-1.3m-373.6 6.8-1.9 2.3 2.3-1.9c2.1-1.8 2.7-2.6 1.9-2.6-.2 0-1.2 1-2.3 2.2m379.6-.8c0 .2.8 1 1.8 1.7 1.5 1.3 1.6 1.2.3-.4s-2.1-2.1-2.1-1.3m550 8.1c1.3 1.4 2.6 2.5 2.8 2.5.3 0-.5-1.1-1.8-2.5s-2.6-2.5-2.8-2.5c-.3 0 .5 1.1 1.8 2.5m-748-1.1c0 .2.8 1 1.8 1.7 1.5 1.3 1.6 1.2.3-.4s-2.1-2.1-2.1-1.3m779.4 3.8-1.9 2.3 2.3-1.9c2.1-1.8 2.7-2.6 1.9-2.6-.2 0-1.2 1-2.3 2.2m-416.5.5c-1.3 1.6-1.2 1.7.4.4s2.1-2.1 1.3-2.1c-.2 0-1 .8-1.7 1.7m104.5.5-1.9 2.3 2.3-1.9c1.2-1.1 2.2-2.1 2.2-2.3 0-.8-.8-.2-2.6 1.9m-721.2.5c8.2.2 21.4.2 29.5 0 8.2-.1 1.5-.3-14.7-.3s-22.9.2-14.8.3m1081.6 0c6.8.2 17.6.2 24 0 6.4-.1.9-.3-12.3-.3s-18.5.2-11.7.3m-594 3c.7.3 1.6.2 1.9-.1.4-.3-.2-.6-1.3-.5-1.1 0-1.4.3-.6.6m-2 2c.7.3 1.6.2 1.9-.1.4-.3-.2-.6-1.3-.5-1.1 0-1.4.3-.6.6m14 0c.6.2 1.8.2 2.5 0 .6-.3.1-.5-1.3-.5s-1.9.2-1.2.5m-401.5 51c2 .2 5.4.2 7.5 0 2-.2.3-.4-3.8-.4s-5.8.2-3.7.4m220 0c.9.2 2.3.2 3 0 .6-.3-.1-.5-1.8-.5-1.6 0-2.2.2-1.2.5m181.5 0c1.8.2 4.5.2 6 0s0-.4-3.3-.4-4.5.2-2.7.4m3.5 4c.9.2 2.5.2 3.5 0 .9-.3.1-.5-1.8-.5s-2.7.2-1.7.5m248.6 1c-1.3 1.6-1.2 1.7.4.4.9-.7 1.7-1.5 1.7-1.7 0-.8-.8-.3-2.1 1.3m28.1-1.3c0 .2.8 1 1.8 1.7 1.5 1.3 1.6 1.2.3-.4s-2.1-2.1-2.1-1.3M231.4 666c0 8.5.2 12 .3 7.7.2-4.2.2-11.2 0-15.5-.1-4.2-.3-.7-.3 7.8m365 0c0 8.5.2 12 .3 7.7.2-4.2.2-11.2 0-15.5-.1-4.2-.3-.7-.3 7.8m58.8 6.7L655 695l2.8-.1c2.3-.2 2.4-.2.5-.6-2.2-.4-2.3-.6-2.6-22.1l-.2-21.7zm257.2-6.7c0 8.5.2 12 .3 7.7.2-4.2.2-11.2 0-15.5-.1-4.2-.3-.7-.3 7.8m75.5-13.3c-1.3 1.6-1.2 1.7.4.4s2.1-2.1 1.3-2.1c-.2 0-1 .8-1.7 1.7m-750 1c-1.3 1.6-1.2 1.7.4.4.9-.7 1.7-1.5 1.7-1.7 0-.8-.8-.3-2.1 1.3m225.1-1.3c0 .2.8 1 1.8 1.7 1.5 1.3 1.6 1.2.3-.4s-2.1-2.1-2.1-1.3m229.4 1.8-1.9 2.3 2.3-1.9c1.2-1.1 2.2-2.1 2.2-2.3 0-.8-.8-.2-2.6 1.9m226.5-.5c-1.3 1.6-1.2 1.7.4.4s2.1-2.1 1.3-2.1c-.2 0-1 .8-1.7 1.7m140.5.5-1.9 2.3 2.3-1.9c2.1-1.8 2.7-2.6 1.9-2.6-.2 0-1.2 1-2.3 2.2m-874 1-1.9 2.3 2.3-1.9c2.1-1.8 2.7-2.6 1.9-2.6-.2 0-1.2 1-2.3 2.2m396.5 1.5c-1.3 1.6-1.2 1.7.4.4s2.1-2.1 1.3-2.1c-.2 0-1 .8-1.7 1.7m147 1c-1.3 1.6-1.2 1.7.4.4s2.1-2.1 1.3-2.1c-.2 0-1 .8-1.7 1.7m125.2-.1c0 1.1.3 1.4.6.6.3-.7.2-1.6-.1-1.9-.3-.4-.6.2-.5 1.3m-4.9 2.4c0 1.9.2 2.7.5 1.7.2-.9.2-2.5 0-3.5-.3-.9-.5-.1-.5 1.8m209.7-1.3c-1.3 1.6-1.2 1.7.4.4.9-.7 1.7-1.5 1.7-1.7 0-.8-.8-.3-2.1 1.3m-457.5 11.8c0 6 .1 8.4.3 5.2s.2-8.1 0-11-.3-.3-.3 5.8m-98.3-7.9c0 1.1.3 1.4.6.6.3-.7.2-1.6-.1-1.9-.3-.4-.6.2-.5 1.3m499.9-.2c0 .2.8 1 1.8 1.7 1.5 1.3 1.6 1.2.3-.4s-2.1-2.1-2.1-1.3m50.6.4c-.2.4.4.8 1.4.8s1.6-.4 1.4-.8c-.3-.4-.9-.8-1.4-.8s-1.1.4-1.4.8m-376.4 2.7c0 1.6.2 2.2.5 1.2.2-.9.2-2.3 0-3-.3-.6-.5.1-.5 1.8m20.6-1.8c2.3.2 5.9.2 8 0 2-.2.1-.4-4.3-.4s-6.1.2-3.7.4m258 0c2.3.2 5.9.2 8 0 2-.2.1-.4-4.3-.4s-6.1.2-3.7.4m-338.7 1.9c0 1.1.3 1.4.6.6.3-.7.2-1.6-.1-1.9-.3-.4-.6.2-.5 1.3m401.9.8c0 .2.8 1 1.8 1.7 1.5 1.3 1.6 1.2.3-.4s-2.1-2.1-2.1-1.3m-575.9 7.2c0 1.1.3 1.4.6.6.3-.7.2-1.6-.1-1.9-.3-.4-.6.2-.5 1.3m230.8 1.1c-1.3 1.6-1.2 1.7.4.4s2.1-2.1 1.3-2.1c-.2 0-1 .8-1.7 1.7m279.1-.3c0 .2.8 1 1.8 1.7 1.5 1.3 1.6 1.2.3-.4s-2.1-2.1-2.1-1.3m-766.1 2.3c-1.3 1.6-1.2 1.7.4.4s2.1-2.1 1.3-2.1c-.2 0-1 .8-1.7 1.7m455 1c-1.3 1.6-1.2 1.7.4.4s2.1-2.1 1.3-2.1c-.2 0-1 .8-1.7 1.7m307.1-1.3c0 .2.8 1 1.8 1.7 1.5 1.3 1.6 1.2.3-.4s-2.1-2.1-2.1-1.3m-734.6 1.8c-.4.6-.3.8.4.4.6-.3 1.3.2 1.5 1.1.4 1.4.5 1.3.6-.5.1-2.3-1.3-3-2.5-1m201.5.5c-1.3 1.6-1.2 1.7.4.4.9-.7 1.7-1.5 1.7-1.7 0-.8-.8-.3-2.1 1.3m16.9 3c.6.2 1.8.2 2.5 0 .6-.3.1-.5-1.3-.5s-1.9.2-1.2.5M774 694.1c0 .5 1.1.9 2.5.9s2.5-.2 2.5-.4-1.1-.6-2.5-.8c-1.4-.3-2.5-.1-2.5.3m-410.7 14.6c.9.2 2.3.2 3 0 .6-.3-.1-.5-1.8-.5-1.6 0-2.2.2-1.2.5M253 714.4c0 .2.8 1 1.8 1.7 1.5 1.3 1.6 1.2.3-.4s-2.1-2.1-2.1-1.3m-17.6 9.1c0 4.9.1 7.1.3 4.8s.2-6.4 0-9-.3-.8-.3 4.2m152.4-.8c.6.2 1.8.2 2.5 0 .6-.3.1-.5-1.3-.5s-1.9.2-1.2.5m36 0c.7.3 1.6.2 1.9-.1.4-.3-.2-.6-1.3-.5-1.1 0-1.4.3-.6.6m54 0c.6.2 1.8.2 2.5 0 .6-.3.1-.5-1.3-.5s-1.9.2-1.2.5m335 0c.7.3 1.6.2 1.9-.1.4-.3-.2-.6-1.3-.5-1.1 0-1.4.3-.6.6m-486.6 15.6-.2 15.8 2.8-.3 2.7-.3v-15.3l.1-15.2-.3 15c-.3 14.1-.5 15-2.3 15s-2-.9-2.3-15.3l-.3-15.2zm413-13.3c0 1.4.2 1.9.5 1.2.2-.6.2-1.8 0-2.5-.3-.6-.5-.1-.5 1.3m8.3 13.2v15.3h5v-15.3l.1-15.2-.3 15c-.3 14.1-.5 15-2.3 15s-2-.9-2.3-15l-.3-15zm55.7-12.7c0 1.6.2 2.2.5 1.2.2-.9.2-2.3 0-3-.3-.6-.5.1-.5 1.8m-387.8.7-1.9 2.3 2.3-1.9c1.2-1.1 2.2-2.1 2.2-2.3 0-.8-.8-.2-2.6 1.9m54.5-.5c-1.3 1.6-1.2 1.7.4.4s2.1-2.1 1.3-2.1c-.2 0-1 .8-1.7 1.7m237.1-1.3c0 .2.8 1 1.8 1.7 1.5 1.3 1.6 1.2.3-.4s-2.1-2.1-2.1-1.3m207 0c0 .2.8 1 1.8 1.7 1.5 1.3 1.6 1.2.3-.4s-2.1-2.1-2.1-1.3m-570.1 2.3c-1.3 1.6-1.2 1.7.4.4s2.1-2.1 1.3-2.1c-.2 0-1 .8-1.7 1.7m421 0c-1.3 1.6-1.2 1.7.4.4s2.1-2.1 1.3-2.1c-.2 0-1 .8-1.7 1.7m186.4 0c.9.2 2.3.2 3 0 .6-.3-.1-.5-1.8-.5-1.6 0-2.2.2-1.2.5m-336.4 2c-1.3 1.6-1.2 1.7.4.4s2.1-2.1 1.3-2.1c-.2 0-1 .8-1.7 1.7m353 0c-1.3 1.6-1.2 1.7.4.4.9-.7 1.7-1.5 1.7-1.7 0-.8-.8-.3-2.1 1.3m-587.8 5.9c0 1.1.3 1.4.6.6.3-.7.2-1.6-.1-1.9-.3-.4-.6.2-.5 1.3m88.9-.2c0 .2.8 1 1.8 1.7 1.5 1.3 1.6 1.2.3-.4s-2.1-2.1-2.1-1.3m173.1 2.2c0 1.1.3 1.4.6.6.3-.7.2-1.6-.1-1.9-.3-.4-.6.2-.5 1.3m177.3 7.9c.1 8.9.1 9 2.6 9s2.5-.1 2.6-8.8V736l-.3 8.5c-.3 7.6-.6 8.5-2.3 8.5s-2-.9-2.3-8.8l-.3-8.7zm-584.2-.3c-.2 8.6-.2 8.7-2.9 9.1l-2.8.4 2.8.2c3.5.1 3.9-.9 3.4-10.5l-.3-7.9zm30-5.7c0 1.6.2 2.2.5 1.2.2-.9.2-2.3 0-3-.3-.6-.5.1-.5 1.8m366 0c0 1.6.2 2.2.5 1.2.2-.9.2-2.3 0-3-.3-.6-.5.1-.5 1.8m5-.5c0 1.4.2 1.9.5 1.2.2-.6.2-1.8 0-2.5-.3-.6-.5-.1-.5 1.3m348 .5c0 1.6.2 2.2.5 1.2.2-.9.2-2.3 0-3-.3-.6-.5.1-.5 1.8m5-.5c0 1.4.2 1.9.5 1.2.2-.6.2-1.8 0-2.5-.3-.6-.5-.1-.5 1.3m-708.7 1-10 .6 9.7.2c5.6.1 9.9-.2 10.3-.8.3-.6.5-.9.3-.8s-4.8.5-10.3.8m35 1c1 1.1 2 2 2.3 2s-.3-.9-1.3-2-2-2-2.3-2 .3.9 1.3 2m256 0c1 1.1 2 2 2.3 2s-.3-.9-1.3-2-2-2-2.3-2 .3.9 1.3 2m25.5-1.6c0 .2.8 1 1.8 1.7 1.5 1.3 1.6 1.2.3-.4s-2.1-2.1-2.1-1.3m332 0c0 .2.8 1 1.8 1.7 1.5 1.3 1.6 1.2.3-.4s-2.1-2.1-2.1-1.3m-544.2 1.3c2.8.2 7.6.2 10.5 0 2.8-.2.5-.3-5.3-.3s-8.1.1-5.2.3m624.2 1.7c0 .2.8 1 1.8 1.7 1.5 1.3 1.6 1.2.3-.4s-2.1-2.1-2.1-1.3m-695.9 4.2c0 1.1.3 1.4.6.6.3-.7.2-1.6-.1-1.9-.3-.4-.6.2-.5 1.3m256 0c0 1.1.3 1.4.6.6.3-.7.2-1.6-.1-1.9-.3-.4-.6.2-.5 1.3m79.9.8c0 .2.8 1 1.8 1.7 1.5 1.3 1.6 1.2.3-.4s-2.1-2.1-2.1-1.3m187.3 2.1c-.3.9-.3 1.8-.1 2.1.3.3.8-.4 1.1-1.6.6-2.3-.1-2.7-1-.5m-204.9 1.7-1.9 2.3 2.3-1.9c2.1-1.8 2.7-2.6 1.9-2.6-.2 0-1.2 1-2.3 2.2m15.1-.2c1 1.1 2 2 2.3 2s-.3-.9-1.3-2-2-2-2.3-2 .3.9 1.3 2m337.9.2-1.9 2.3 2.3-1.9c2.1-1.8 2.7-2.6 1.9-2.6-.2 0-1.2 1-2.3 2.2m-109.1-.5c2.6.2 6.8.2 9.5 0 2.6-.2.4-.3-4.8-.3s-7.4.1-4.7.3m138.6 1c-1.3 1.6-1.2 1.7.4.4.9-.7 1.7-1.5 1.7-1.7 0-.8-.8-.3-2.1 1.3m-393.1 0c.7.3 1.6.2 1.9-.1.4-.3-.2-.6-1.3-.5-1.1 0-1.4.3-.6.6m154 0c.7.3 1.6.2 1.9-.1.4-.3-.2-.6-1.3-.5-1.1 0-1.4.3-.6.6m199 0c.7.3 1.6.2 1.9-.1.4-.3-.2-.6-1.3-.5-1.1 0-1.4.3-.6.6m-719.9 1.5c.7 1 2.6 1.8 4.2 1.8 3 0 3.8-1.3 1.7-2.6-.7-.4-.8-.3-.4.4 1 1.6-3.6 1.6-5.4-.1-1.2-1-1.2-.9-.1.5m683.9.5c.7.3 1.6.2 1.9-.1.4-.3-.2-.6-1.3-.5-1.1 0-1.4.3-.6.6m-574.5 1c.9.2 2.3.2 3 0 .6-.3-.1-.5-1.8-.5-1.6 0-2.2.2-1.2.5m47 0c.9.2 2.3.2 3 0 .6-.3-.1-.5-1.8-.5-1.6 0-2.2.2-1.2.5m21 0c.9.2 2.3.2 3 0 .6-.3-.1-.5-1.8-.5-1.6 0-2.2.2-1.2.5m78 0c.9.2 2.3.2 3 0 .6-.3-.1-.5-1.8-.5-1.6 0-2.2.2-1.2.5m34 0c.9.2 2.3.2 3 0 .6-.3-.1-.5-1.8-.5-1.6 0-2.2.2-1.2.5m132 0c.9.2 2.3.2 3 0 .6-.3-.1-.5-1.8-.5-1.6 0-2.2.2-1.2.5m33 0c.9.2 2.3.2 3 0 .6-.3-.1-.5-1.8-.5-1.6 0-2.2.2-1.2.5m92 0c.9.2 2.3.2 3 0 .6-.3-.1-.5-1.8-.5-1.6 0-2.2.2-1.2.5m71.5 0c3.4.2 8.8.2 12 0 3.1-.2.3-.3-6.3-.3s-9.2.1-5.7.3m43.5 0c.9.2 2.3.2 3 0 .6-.3-.1-.5-1.8-.5-1.6 0-2.2.2-1.2.5m14.8 5.9c0 1.1.3 1.4.6.6.3-.7.2-1.6-.1-1.9-.3-.4-.6.2-.5 1.3"/><path d="M545.5 370.1c-36 4.6-67.2 29.4-80.1 63.7-9.8 26.1-10.5 56.9-1.9 84.1C478 563.6 522.2 592 571.1 587c24.2-2.4 43.5-11.1 60.2-27 37.2-35.2 43.5-100.7 14.2-146.6-7.9-12.4-24-26.6-38.2-33.8-17.2-8.6-40.3-12.2-61.8-9.5m29 2.4c23.4 4.5 40.9 22.9 49.8 52.5 4.7 15.5 5.9 24.3 6.4 46.9.8 31.1-2.4 52.9-10.6 72-12.1 28.4-35.5 43.7-63.6 41.7-34.7-2.5-55.5-26-64-72.3-2.2-11.7-3.1-43.9-1.6-57.1 5.3-48.2 24.2-76.9 55.2-83.6 8.5-1.9 19-1.9 28.4-.1m-561.7 1.6q8.25 4.05 10.2 13.5c.7 3.3 1 33.5.8 92.9-.3 82.3-.4 88.3-2.1 92-2.2 4.9-6.2 9.3-10.2 11.1-4.8 2.2 111.4 1.4 124-.9 34.8-6.3 50.1-22.9 48.2-52.3-.4-6.8-1.1-9.8-3.6-14.9C173 501 158.6 492.7 124 483c-6.3-1.8-11.9-3.5-12.3-3.9s3.2-1.8 8-3.1 13.2-4.5 18.6-7.2c20.1-10.1 30.7-25.9 30.7-45.8 0-7.7-2.2-17.4-5.1-23.2-3.1-6.1-11.7-14.2-18.9-17.8-7.9-4-21.4-7.5-34.8-8.9-6-.6-29.4-1.1-56-1.1H8.5zm95 2.8c20.4 7.1 28.2 20.8 28.2 49.6 0 14.2-1.9 24.5-6 32.6-3.2 6.1-10.3 13.3-16.4 16.5l-5.4 2.8-9.9-3.8c-23.8-9.3-35-17.1-40.3-27.9-4.4-9.2-5-14.2-5-44.9v-28l24.3.4c21.8.4 24.8.6 30.5 2.7m-51.7 71.3c3.2 6.3 12.5 14.9 20.6 19.1 4 2.1 13.8 6.4 21.7 9.6 19.2 7.7 28.4 13.1 37.1 21.6 11.8 11.6 17.4 26.4 16.1 42.7-1.7 21.1-10.4 33.4-27.4 39-6.2 2-9.1 2.2-38.9 2.6l-32.3.4v-69.6c0-38.3.2-69.6.5-69.6.2 0 1.4 1.9 2.6 4.2m146.2-74.7c2.1.8 5.1 2.4 6.8 3.5 6.2 4.5 5.9-1.1 5.9 101.6 0 107.9 1 97.7-10.2 103.3l-6.1 3.1h31.4c27.9-.1 31-.2 27.5-1.5-4.7-1.7-9.4-5.9-11.2-10.2-1.2-2.7-1.4-19.4-1.4-95.5 0-105.4-.8-96.6 9-102.6l5.4-3.2-30.4.1c-27.3 0-30.1.2-26.7 1.4m75.5.7c2.6 1.2 5.5 3.8 7 6.1l2.7 4.1.3 94.2.2 94.3-3.2 3.7c-1.8 2-5.5 4.8-8.3 6l-5 2.4h61.9l-5.2-2.6c-2.9-1.4-6.2-4-7.4-5.7l-2.3-3.2-.2-52-.2-52 3.3 7c11 23.3 29.5 34.8 56.1 34.8 40.4.1 65.4-28.8 63.2-73.2-1-20.8-5.7-32.2-18.1-44.6-10.3-10.2-19.2-14.8-37.6-19.2-5.4-1.3-15.4-1.6-59-1.9l-52.5-.4zm91.8.9c17.5 3.2 30.9 16.7 35.9 36.4 3.9 15.1 3.9 41 0 56-4.1 15.8-13.1 28.1-24.3 33.3-5.1 2.3-6.9 2.6-17.2 2.7-10.5 0-12-.2-17.3-2.7-11.7-5.5-20.7-16.7-25.8-32.3-2.3-6.8-2.3-8.2-2.7-50.8l-.3-43.7h22.9c12.5 0 25.5.5 28.8 1.1m312.2-1c5.1 2.5 7.8 5.8 9.2 11 .7 2.5 1 34.5.8 94.1l-.3 90.3-2.9 5.8c-1.7 3.6-4 6.6-6 7.8l-3.1 1.9h53.8l-3.3-2.2c-4.4-3-6.9-6.6-8-11.4-1.2-5.1-1.3-114.4-.1-114.4.5 0 1.2 1.5 1.5 3.2 1.1 5.6 9.3 24.7 15.2 35.2 8 14.4 17.8 28.6 32.9 48.1 21.9 28.3 20.5 26.1 20.5 31.2 0 3.6-.6 5-2.9 7.4l-2.9 2.9h74.3l-7-3.6c-9.8-5-12.8-7.3-50-37.7-22-18-37.6-31.7-46.8-41-7.6-7.7-13.6-14.2-13.3-14.5s2.8.7 5.6 2.2c9.7 5.3 15.7 6.8 29 7.3 15.4.6 24.2-1 35.5-6.6 20.3-10 30.5-28.5 30.5-55.1 0-38.1-20-58.2-62.4-62.9-5.4-.6-30-1.1-56.8-1.1h-47.3zm93.5 1.4c19.5 4.1 31.4 17.7 35.3 40.5 1.9 11.1 1.4 29.7-1.1 39.8-4.8 19.6-16.9 31.6-34.9 34.4-23.9 3.7-43.4-10.9-50.8-38.1-1.9-6.9-2.2-10.9-2.6-42.9l-.4-35.2h23.9c16.8 0 25.8.5 30.6 1.5m187 17.3c-39.3 99.3-47.5 119-61.6 148.7-12.1 25.3-17.3 34.5-22.2 39.2l-4.4 4.3h15c14.5 0 14.9-.1 13.9-1.9-1.9-3.6-1-12.5 2.5-26.5 4.1-16.5 8.1-23.3 20.4-34.8 12.3-11.6 26-17.7 44.3-19.7 9.9-1.1 25.8-.2 31 1.8 2.1.8 4.5 5.8 15.1 31.8 7 16.9 13 32.7 13.3 34.9.8 5.1-1.7 10.8-5.5 12.9-2.3 1.3.7 1.4 25.8 1.5h28.3l-4.8-3.2c-9.9-6.8-6.1 1.8-69.9-156.3-10.2-25.3-19.2-47.7-20.2-49.8-1.6-3.6-1.7-3.7-7.2-3.7h-5.6zm19.2 58.3c10.7 26 19.3 47.5 19 47.7-.2.2-4.6-.2-9.7-.8-26.7-3.5-52.4 4.8-69.8 22.4-3 3.1-5.8 5.6-6.2 5.6-1.6 0 14.3-44.1 32.6-90.4 13.4-33.9 13.8-34.6 14.3-32.9.2.6 9.1 22.4 19.8 48.4m115-77.5c4.5 2.3 6.6 4.5 8.6 8.9 1.8 3.8 1.9 8.9 1.9 96.9v92.9l-2.6 4.4c-1.4 2.4-4 5.3-5.7 6.4-3.2 1.9-2.8 1.9 68.2 1.7l71.5-.3 4.2-19.5c2.3-10.7 4.1-19.6 4-19.7 0-.1-3.7 3-8.1 6.8-18.1 15.7-38.3 27.5-50.9 29.8-3.3.6-16 1.1-28.3 1.1H1137v-97.3c0-92.5.1-97.4 1.9-101.2 2.1-4.4 6.1-8.6 10.6-10.9 2.8-1.5.8-1.6-26.5-1.6-27.4 0-29.3.1-26.5 1.6M427 656.3c0 23.4.4 24.7 7.1 24.7 2.8 0 3.9-.4 3.9-1.5 0-.8-.8-1.5-1.8-1.5-3.9 0-4.2-1.7-4.2-22.2V636h-5zm107-12.8v7.4l-4.8-.6c-9.9-1.1-16.4 4.7-17 15.2-.4 7.7 2.5 13.2 8.1 15.4 3.5 1.3 4 1.2 8.7-1.2 4.7-2.5 5-2.5 5-.7 0 1.5.7 2 2.5 2h2.5v-45h-2.5c-2.4 0-2.5.2-2.5 7.5m-.2 20.7.3 9.8-3.3 2c-4.1 2.5-7.9 2.5-10.9.1-1.9-1.6-2.4-3-2.7-8.9-.4-6.9-.3-7.2 2.7-10.2 2.7-2.8 3.6-3.1 8.3-2.8l5.3.3zm291.6-24.3c-13.9 6.3-16.3 28.2-4.1 37.5 10 7.7 24.8 4.5 30.5-6.6 4.2-8.2 2.8-20.3-3.1-26.7-5.4-5.8-15.6-7.7-23.3-4.2m17.6 4.7c4.5 3.9 6.3 8 6.4 14.9.1 11.6-5.4 18-15.4 18-10.1 0-15.5-6.1-15.5-17.5 0-12 5.2-18 15.7-18 4.6 0 6.2.5 8.8 2.6m208.4-5.6c-6.7 2.7-7.2 12-1.2 18.7l2 2.1-4.1 4.1c-3.4 3.4-4.1 4.7-4.1 8.1 0 10.3 13.7 13.1 24.1 5l3.5-2.8 5.4 3.4c6.1 3.8 6.6 4 7.3 2 .4-1-1.1-2.5-4.6-4.7-2.9-1.7-5.3-3.2-5.5-3.4-.1-.1 1.3-2.8 3.3-6 4-6.7 4.1-7.1 2-7.9-1-.4-2.2.9-4 4.2-4.2 8.1-3.7 7.9-9.3 4.4-2.7-1.8-5.7-4.1-6.6-5.1-1.6-1.8-1.6-2 1.4-4.1 4.9-3.5 7.2-9.7 5.4-14.5-1.4-3.6-9.8-5.6-15-3.5m10.1 3.4c2 1.4 2.3 6.2.6 9.5-.6 1.1-2.4 2.9-4 4l-2.9 2.1-2.6-3.1c-3-3.6-3.5-9.3-.9-12.1 1.9-2.1 7.1-2.4 9.8-.4m-4.5 21c.6.8 3.4 2.9 6.1 4.6 2.7 1.8 4.9 3.7 4.9 4.4 0 1.7-6.2 5.4-9.5 5.6-5.4.4-7.3 0-8.9-1.6-2.6-2.5-1.9-6.9 1.5-10.9 3.5-3.9 4.1-4.1 5.9-2.1M162 660v21.2l9.3-.4c10-.4 13.8-1.7 17-6 4-5.4 1.7-11.6-5.2-14.5l-3.4-1.4 3-1.9c6.8-4.1 8-9.1 3.4-14.2-2.9-3.3-3-3.3-13.5-3.6l-10.6-.4zm20-15.5c2.5 2.3 2.6 6.6.1 9.6-1.5 1.9-3 2.4-8.5 2.7l-6.6.4v-15.5l6.5.6c4.3.3 7.3 1.1 8.5 2.2m-1 17.8c3.4 1.7 5.5 5.7 4.6 9-.9 3.7-5.3 5.7-12.6 5.7h-6v-16h5.8c3.1 0 6.8.6 8.2 1.3m203-2.3v21h5v-42h-5zm180 0v21h2.5c2.5 0 2.5-.1 2.5-8.4v-8.3l5-.6c10.6-1.3 16.5-6.6 15.6-14s-6.4-10.7-18.1-10.7H564zm17.7-15.4c2.6 1.7 3.8 5.3 2.9 8.9-.9 3.5-6.1 6.5-11.3 6.5H569v-18.3l5.3.7c2.8.4 6.2 1.4 7.4 2.2M748 647c0 3.8-.2 4-3 4-2.3 0-3 .4-3 2 0 1.5.7 2 2.9 2h2.9l.4 11c.4 14 1.8 15.7 12.1 15.2 4.5-.3 3.5-3.2-1.1-3.2-2.1 0-4.3-.5-5-1.2-.8-.8-1.2-4.8-1.2-11.5V655h5c4.3 0 5-.3 5-2s-.7-2-5-2h-5v-4c0-3.6-.2-4-2.5-4-2.2 0-2.5.4-2.5 4m-545.2 4.1c-1.6.6-2.8 1.7-2.8 2.5 0 1.1 1.2 1.2 6 .7 7.5-.7 10 1 10 6.9v3.8h-5.5c-9.2 0-14.5 4.3-12.9 10.5 1.5 5.9 9.8 7.8 15.4 3.6 3.6-2.6 4-2.6 4-.1 0 1.4.7 2 2.1 2 2 0 2.1-.4 1.7-12.5-.3-12-.4-12.6-3-15.1-3-3-10.3-4.1-15-2.3m11.2 25.1c-2.5 2-9 2.4-10.8.6-1.7-1.7-1.5-5.3.4-6.9.9-.8 4-1.6 6.8-1.9l5.1-.5.3 3.5c.3 2.6-.2 3.9-1.8 5.2m28.5-25.3c-1.2.5-2.7 1.6-3.4 2.5-1.8 2.2-3.1 2-3.1-.4 0-1.3-.7-2-2-2-1.9 0-2 .7-2 15v15h5v-11.9c0-11.3.1-12.1 2.2-13.5 2.3-1.7 7.5-2.1 9.4-.8 2.6 1.7 3.4 5.6 3.4 15.6V681h5v-10.5c0-10.7-1.2-15.7-4.3-18.3-2-1.7-7.6-2.4-10.2-1.3m29.3.3c-1.8.6-2.8 1.7-2.8 2.9 0 1.6.3 1.8 1.9.9 1.1-.5 3.8-1 6-1 5.2 0 8.1 2.7 8.1 7.4v3.4l-7.1.4c-6.3.3-7.4.7-9.5 3.1-3 3.5-3 6.9-.1 10.1 3.3 3.7 6.4 4.1 12 1.3 4.4-2.3 4.7-2.3 4.7-.6 0 1.4.7 1.9 2.5 1.9h2.5v-10.5c0-6.9-.5-11.8-1.4-14-2.4-5.6-9.7-8-16.8-5.3m13.2 19.7c0 5-3.2 7.3-9.3 6.9-4-.3-4.2-.5-4.5-3.7-.4-4.3.5-5.1 6.9-6.1 3-.4 5.7-.8 6.2-.9.4 0 .7 1.6.7 3.8m26-19.8c-1.3.6-3.3 1.7-4.2 2.6-1.7 1.5-1.8 1.5-1.8-.5 0-1.7-.6-2.2-2.5-2.2H300v30h5v-11.4c0-11.2.1-11.5 2.6-13.5 3.8-3 8.7-2.8 11.3.5 1.8 2.3 2.1 4.1 2.1 13.5V681h2.5c2.5 0 2.5 0 2.5-10 0-11.7-1.7-17.3-6.1-19.5-3.2-1.7-5.4-1.8-8.9-.4m29.2 0c-5.1 1.5-3.4 3.5 2.6 3.1 2.8-.2 5.9-.1 7 .2 2.2.7 4.2 4.6 4.2 8.1 0 2.4-.3 2.5-5.4 2.5-9 0-13.6 2.8-13.6 8.1 0 4.2 1.5 6.5 5 7.7 3.2 1.2 7.7.3 11.6-2.3 2.3-1.5 2.4-1.4 2.4.5 0 1.5.7 2 2.6 2h2.6l-.4-11.8c-.4-12.9-1.2-15.2-6.4-17.7-3.6-1.7-7.3-1.8-12.2-.4M354 671c0 3.4-.4 4.2-3 5.5-4.2 2.2-9.7 2-11-.4-2.3-4.5.2-7.3 7.1-8.2 3-.3 5.7-.7 6.2-.8.4 0 .7 1.7.7 3.9m49.3-19.5c-3.7 1.6-5.1 5.3-3.7 9.4.7 1.9 2.8 3.5 7.7 5.9 6 2.9 6.7 3.5 6.7 6.2 0 4-2.9 5.4-9.6 4.7-4-.4-5.4-.2-5.8.9-.3.9.3 1.6 1.9 1.9 1.4.3 3.6.7 4.8 1 5.8 1.2 13.7-3.7 13.7-8.5 0-3.9-2.2-6.2-8.9-9.4-6.3-3.1-8.2-5.6-6-8.3 1-1.1 2.7-1.4 7.1-1.1s5.8.1 5.8-.9c0-3.1-8.3-4.2-13.7-1.8m45.9-.4c-5.1 1.5-3.5 3.5 2.6 3.1 2.8-.2 5.9-.1 7 .2 2.2.7 4.2 4.6 4.2 8.1 0 2.3-.3 2.5-5.4 2.5-9.5 0-13.6 2.5-13.6 8.5 0 7.9 8.4 10.4 16.6 5 2.3-1.5 2.4-1.4 2.4.5 0 1.5.7 2 2.5 2 2.5 0 2.5 0 2.5-9.3 0-10.9-1.1-15.5-4.4-18.6-2.8-2.7-9.3-3.6-14.4-2m13.8 19.7c0 3.1-.5 4.1-2.9 5.5-3.4 2-9.2 2.2-10.9.5s-1.5-5.3.4-6.9c.9-.8 4-1.7 6.8-2s5.4-.7 5.9-.8c.4 0 .7 1.6.7 3.7m23.6-18.3c-3.4 2.3-3.6 2.3-3.6.5 0-1.5-.7-2-2.5-2H478v30h5v-11.9c0-11.5.1-11.9 2.5-13.5 2.8-1.8 6.7-2.1 9.5-.6 2.7 1.4 4 7.1 4 17.2v8.8h5.3l-.5-10.8c-.6-11.5-2-15.8-6-18.6-3.2-2.3-7-2-11.2.9m121.7-1.8c-1.3.2-3.1 1.5-4.2 2.9-2.4 3-3.1 3-3.1-.1 0-1.8-.5-2.5-2-2.5-1.9 0-2 .7-2 15s.1 15 2 15 2-.7 2-10.4c0-9.8.1-10.5 2.6-13 1.8-1.8 3.7-2.6 6-2.6 3 0 3.4-.3 3.4-2.5 0-2.5-.4-2.6-4.7-1.8m17.7 1c-10.3 5.3-10.9 21.9-1 27.7 12.4 7.3 25.9-5.8 20.6-19.9-3.1-8-12.2-11.6-19.6-7.8m13 4.8c4.7 5 3.5 17.6-1.9 20.5-3.7 1.9-8.1 1.2-11.2-1.9-3.7-3.8-4.3-11.5-1.3-17.2 1.6-3.2 2.6-3.7 8-3.8 3.1-.1 4.6.5 6.4 2.4m24.8-4.1c-3.6 2.4-3.8 2.4-3.8.6 0-1.3-.7-2-2-2-1.9 0-2 .7-2 21.5s.1 21.5 2 21.5c1.8 0 2-.7 2-6.4v-6.4l5.9.1c10.2.1 16.1-5.6 16.1-15.6 0-12.6-9.3-19.4-18.2-13.3m10.6 3.9c5 5 4.1 16.2-1.7 19.7-3.2 2-8.1 2.6-11.1 1.4-1.3-.5-1.6-2.4-1.6-9.9 0-8.9.1-9.5 2.6-11.4 3.6-2.8 8.9-2.7 11.8.2m21.8-4.3c-9.4 5.8-9.9 21.6-.7 27.6 4.4 2.9 17.5 2 17.5-1.2 0-1.1-1.1-1.3-5.5-.8-8.7 1-13.5-1.8-13.5-8 0-2.5.1-2.5 9.8-2.8l9.7-.3.3-3.7c.8-9.8-9.1-15.9-17.6-10.8m8.8 2c2 0 4 3.4 4 6.6v3.4h-15v-2.8c0-4 5.4-8.7 8.8-7.6.8.2 1.7.4 2.2.4m29.5-3.3c-1.1.2-3.2 1.8-4.7 3.6l-2.8 3.1v-3.2c0-2.7-.4-3.2-2.5-3.2H722v30h5v-10.5c0-9.9.2-10.7 2.5-13 1.7-1.7 3.5-2.5 6-2.5 3.2 0 3.6-.3 3.3-2.2-.3-2.3-1.2-2.8-4.3-2.1m189 .3c-1.2.4-2.7 1.5-3.4 2.4-1.8 2.2-3.1 2-3.1-.4 0-1.3-.7-2-2-2-1.9 0-2 .7-2 15s.1 15 2 15 2-.7 2-11.4c0-11.2.1-11.5 2.6-13.5 3.8-3 8.7-2.8 11.3.5 1.8 2.3 2.1 4.1 2.1 13.5V681h5v-10.6c0-12-1.5-16.6-6.1-18.9-3.1-1.7-5.4-1.8-8.4-.5m30.8.6c-5 2.5-7.6 7.5-7.6 14.6 0 6.3 1.5 9.4 6.5 13.1 4.3 3.2 17.8 2.5 17.8-.9 0-1.1-1.2-1.3-5.7-.8-7.5.8-11-.6-12.8-5.1-.8-1.9-1.5-3.9-1.5-4.5s3.8-1 9.9-1c11.2 0 11.9-.5 10.6-7.4-1.5-7.9-9.6-11.7-17.2-8m11 4.2c1 .9 1.7 2.9 1.7 4.9v3.3h-7.4c-4.1 0-7.7-.4-8-.9s-.1-2.3.5-4.1c2-5.5 8.7-7.1 13.2-3.2m26.7-5.1c-.8.3-2.7 1.7-4.2 3.1l-2.8 2.6v-2.7c0-2.2-.5-2.7-2.5-2.7H980v30h5v-10.9c0-10.6.1-11 2.6-13 1.5-1.2 4.1-2.1 6.1-2.1 3 0 3.4-.3 3.1-2.2-.3-2.3-2.1-3.1-4.8-2.1m15.4.3c-2.6 1-5.4 4.8-5.4 7.2 0 2.7 4 6.6 10 9.5 4.4 2.2 5.6 3.4 5.8 5.5.5 3.8-2.6 5.2-10 4.4-4.7-.5-5.8-.3-5.8.9 0 3.2 11 3.8 16.1.9 7.5-4.4 5.7-10.7-4.7-15.9-4.8-2.4-6-3.5-6.2-5.7-.3-2.2.2-2.9 2.3-3.4 1.5-.4 4.7-.4 7.1 0 3.9.5 4.5.3 4.2-1.1-.5-2.8-8.8-4.2-13.4-2.3m-239.4.7c0 .4 2.5 7.4 5.4 15.5l5.4 14.7-1.9 5.1c-2.4 6.3-2.4 7 0 7 1.2 0 2.3-1.1 2.9-2.8.5-1.5 3.7-10.4 7-19.7 3.3-9.4 6.4-17.8 6.7-18.8.6-1.3.2-1.7-1.7-1.7-2.3 0-2.8.9-6.4 12.5-2.1 6.9-4.1 12.5-4.4 12.5s-2.4-5.5-4.6-12.3c-3.4-10.3-4.4-12.3-6.2-12.5-1.2-.2-2.2 0-2.2.5m92.5.5c.2.7 1.8 6 3.5 11.8 5.3 17.8 5 17 7.4 17 1.9 0 2.7-1.6 6.5-13 2.3-7.2 4.6-12.8 5-12.6.4.3 2.5 6.2 4.7 13.1 3.6 11.8 4 12.6 6.3 12.3 2.1-.3 2.7-1.6 6.1-12.8 2-6.9 4-13.5 4.4-14.8.7-2.1.5-2.3-1.5-2-2.1.3-2.7 1.6-5.4 11.5-1.7 6.1-3.3 11.5-3.7 11.8-.4.4-2.4-4.8-4.5-11.4-3.8-12.1-3.8-12.1-6.7-11.9-2.8.3-3.1.8-6.9 12.2-2.4 7.3-4.2 11.3-4.7 10.6s-2.1-6.2-3.6-12.2c-2.6-9.7-3.1-10.8-5.1-10.8-1.3 0-2.1.5-1.8 1.2M362 716.1v7.2l-3.5-.6C348.4 721 340 728.4 340 739c0 12.1 9.5 18.6 18.4 12.5 3.4-2.3 3.6-2.3 3.6-.5 0 1.5.7 2 2.5 2h2.5v-44h-2.5c-2.4 0-2.5.2-2.5 7.1m-1.6 10.5c1.3.5 1.6 2.3 1.6 9.7 0 7.9-.3 9.4-2.2 11.4-3.2 3.4-9.9 3.2-12.7-.3-2.4-3.1-2.9-11.6-.9-16 1.9-4.1 9.4-6.6 14.2-4.8m-33.1-15.9c-1.8.7-1.6 3.8.3 5.3 1.2 1.1 1.8 1 3.2-.4 2.5-2.5-.2-6.3-3.5-4.9m346.8.7c-2.5 3 1.6 6.7 4.4 4 1.1-1.2 1.2-2 .5-3.5-1.2-2.2-3.3-2.5-4.9-.5m74.1-.2c-1.6 1.6-1.5 3.3.4 4.8 2.2 1.9 5.4-1.2 3.8-3.7-1.4-2.2-2.7-2.6-4.2-1.1M230 732v21h2.5c2.5 0 2.5-.1 2.5-8.5V736h3.3c2.8.1 3.9 1 8.2 6.6 6.7 8.7 8.9 10.6 11.5 10.2 2.1-.3 1.6-1.1-4.8-8.8l-7.1-8.5 3.4-1.7c7.5-3.9 9.9-11.9 5.1-17.5-3.1-3.7-8.4-5.3-17.5-5.3H230zm19.4-14.9c2 1.6 2.6 2.9 2.6 5.8 0 5.6-3.4 8.4-11 8.9l-6 .4V715h5.9c4.4 0 6.5.5 8.5 2.1m268.3 13.1c-4.2 10.6-7.9 20.1-8.3 21-.5 1.4-.1 1.8 1.8 1.8 2 0 2.7-.9 4.2-5l1.8-5h21.4l1.8 5c1.5 4.1 2.2 5 4.2 5h2.4l-1.9-4.8c-1.1-2.6-4.8-12-8.3-20.9-5.9-15.1-6.5-16.3-8.9-16.3s-3 1.2-10.2 19.2m15-3 4 11.3-8.5.3c-4.6.2-8.6.1-8.8-.1-.6-.6 7.7-22.7 8.5-22.7.4 0 2.5 5.1 4.8 11.2M866 732v21h11.5c9.6 0 11.5-.3 11.5-1.5s-1.7-1.5-9-1.5h-9v-39h-5zm-419-13c0 3.8-.2 4-3 4-2.3 0-3 .4-3 2s.7 2 3 2h3v11c0 10.4.1 11.2 2.5 13.5 2.5 2.6 8.5 3.4 11.4 1.6 2.3-1.5.2-3.1-3.9-3.1-2.5 0-4-.5-4.4-1.6-.3-.9-.6-6-.6-11.5V727h5c4.3 0 5-.3 5-2s-.7-2-5-2h-5v-4c0-3.6-.2-4-2.5-4-2.2 0-2.5.4-2.5 4m277 0c0 3.6-.2 4-2.5 4-1.8 0-2.5.5-2.5 2 0 1.4.7 2 2.4 2 2.3 0 2.4.2 2.8 11.1.3 10.8.4 11.2 3.2 13.6 3.5 3 10.9 3 11.4.1.3-1.5-.4-1.8-3.7-1.8-5.4 0-6.1-1.6-6.1-13.4V727h5c4.3 0 5-.3 5-2s-.7-2-5-2h-5v-4c0-3.6-.2-4-2.5-4-2.2 0-2.5.4-2.5 4m-447.8 4.1c-6.5 1.3-10.2 6.9-10.2 15.1 0 6.6 2.5 11.5 7.1 14 5.4 2.9 16.9 1.9 16.9-1.5 0-.9-1.7-1.2-6.9-.9-6.4.4-7.2.2-9.5-2.1-1.7-1.7-2.6-3.7-2.6-5.6v-3l9.8-.3 9.7-.3.3-2.9c1-8-6.3-14.3-14.6-12.5m8 4.6c1 .9 1.8 3 1.8 5v3.3h-7.5c-7.4 0-7.5 0-7.5-2.5 0-5.9 8.8-9.8 13.2-5.8m21-4.6c-4.6.9-7.2 3.6-7.2 7.4s2.6 6.4 9 9.2c6.1 2.7 7.6 4.6 6.1 7.9-1.1 2.5-1.4 2.6-8.1 2.2-6-.3-7-.1-7 1.3 0 3.1 10 4 15 1.4 8.3-4.3 6.1-12.3-4.8-17-9.7-4.2-6.9-10.8 3.8-9.1 2.3.4 4.1.2 4.5-.5.4-.6.5-1.2.3-1.4-1.1-1.1-8.7-2-11.6-1.4m256 0c-4.6.9-7.2 3.6-7.2 7.4s2.6 6.4 9 9.2c6.1 2.7 7.6 4.6 6.1 7.9-1.1 2.5-1.4 2.6-8.1 2.2-6-.3-7-.1-7 1.3 0 3.1 10 4 15 1.4 8.3-4.3 6.1-12.3-4.8-17-9.5-4.1-7.2-10.6 3.3-9.1 3.3.5 4.4.3 4.8-.9.4-.8.3-1.5-.1-1.5s-2.3-.4-4.2-.8c-1.9-.5-5-.5-6.8-.1m27 0c-4.6.9-7.2 3.6-7.2 7.4s2.6 6.4 9.2 9.3c4.9 2.1 7.2 5 6.2 7.6-.8 2.1-4.4 2.9-10.4 2.4-5.6-.6-7.8 1.5-3.4 3.2 6.1 2.4 15.1.3 17.4-3.9 2.8-5.3.7-8.5-8.8-13.6-6.1-3.2-7.3-5.3-4.6-8 1.4-1.4 2.8-1.6 7-1.1 4.1.5 5.3.3 5.8-.9.3-.8.2-1.5-.2-1.5s-2.3-.4-4.2-.8c-1.9-.5-5-.5-6.8-.1m30 0c-12.8 2.7-14.8 23.6-2.9 29.2 10.1 4.8 20.7-2.1 20.7-13.6 0-11-7.7-17.8-17.8-15.6m9.7 5.7c3.3 3.3 4.6 8.8 3.1 14-1.3 5.2-4 7.4-9 7.6-7.1.1-11.3-6.7-9.6-16 1.6-8.1 9.9-11.2 15.5-5.6m24.8-5.4c-6.9 2.5-9.8 6.8-9.8 14.4-.1 6.1 1.2 9.3 5.1 12.5 3.9 3.4 6.9 4.1 12.7 3.3 5.3-.7 5.5-.8 4.8-2.7-.4-1-2-1.3-6-1.1-6.9.5-10-1.3-11.6-6.7-1.5-5-.5-10.3 2.6-13.8 2.1-2.5 3-2.8 8.4-2.8 3.9.1 6.2-.4 6.5-1.2.9-2.3-7.8-3.6-12.7-1.9m46.8-.8c-.5.1-2.7.5-4.7.9-3 .5-3.8 1-3.8 2.7 0 1.5.4 1.8 1.8 1.3.9-.4 3.4-.9 5.4-1.2 3-.4 4.1-.1 6.2 2 1.7 1.7 2.6 3.7 2.6 5.7 0 2.8-.2 3-3.7 3-9.8.1-15.3 3.4-15.3 9.2 0 6.7 8 9.9 14.8 5.8 3.9-2.4 4.2-2.4 4.2-.5 0 .9 1 1.5 2.6 1.5h2.6l-.4-12c-.3-11.2-.5-12.1-2.8-14.5-2.5-2.4-7.4-4.5-9.5-3.9m7.5 20.9c0 2.9-.6 3.9-3.2 5.5-4.6 2.8-8.4 2.6-10.4-.5-1.5-2.3-1.5-2.7 0-4.9 1.6-2.6 3.6-3.2 9.9-3.5 3.6-.1 3.7 0 3.7 3.4m65.2-20.4c-7 1.5-11.9 9.2-10.9 17.4 2.1 18.9 28.7 17.1 28.7-1.9 0-10.6-8-17.6-17.8-15.5m9.9 5.8c2.5 2.6 2.9 3.7 2.9 8.6 0 3.1-.7 6.9-1.5 8.4-3.1 6-12.9 6-16 .1-3-5.8-1.2-16.3 3.2-18.9 3.5-2 8.3-1.3 11.4 1.8m124.4-6.3c-.5.1-2.7.5-4.7.9-3 .5-3.8 1-3.8 2.7 0 1.5.4 1.8 1.8 1.3.9-.4 3.4-.9 5.4-1.2 3-.4 4.1-.1 6.2 2 1.7 1.7 2.6 3.7 2.6 5.7 0 2.8-.2 3-3.7 3-5.3 0-11.1 1.8-13.4 4.1-2.7 2.7-2.4 7.4.7 10.6 2.2 2.2 3.2 2.5 7 2 2.5-.2 5.3-1.2 6.3-2.1 2.2-2 3.1-2 3.1-.1 0 .9 1 1.5 2.6 1.5h2.6l-.4-12c-.3-11.2-.5-12.1-2.8-14.5-2.5-2.4-7.4-4.5-9.5-3.9m7.5 20.7c0 4.1-2.5 6.6-7.4 7.4-4.4.7-6.6-.9-6.6-4.7 0-4.2 2.6-5.6 10.3-5.9 3.6-.1 3.7 0 3.7 3.2m22.2-20c-8.4 2.3-10.8 10.5-4.8 16.1 3.3 3.2 3.3 3.2 1.4 5.5-1.7 2.2-1.7 2.6-.3 4.7 1.9 2.9 1.9 3.4.1 3.4-.7 0-2.5 1-4 2.1-2.1 1.6-2.6 2.8-2.4 5.2.9 8.9 21.1 9.5 27.8.9 4.5-5.6.8-10.9-8.1-11.8-9.2-.9-9.9-1.2-9.9-3.9 0-2.1.5-2.5 3.1-2.5 7.8 0 14.6-7 12.1-12.5-1.7-3.7-1.5-4.5 1.3-4.5 1.5 0 2.5-.6 2.5-1.4 0-1.1-1.9-1.5-8-1.8-4.4-.2-9.3 0-10.8.5m9.3 4.7c2.6 2.9 2.4 7.9-.4 10.2-7.2 5.7-17.5-3.8-11.1-10.2 2.7-2.7 9-2.7 11.5 0m3.8 26.2c2.6 1.3 2.1 5.3-.9 7.7-3.7 2.9-14.3 3-16.8.2-2.3-2.6-1.3-5.7 2.6-8.1 2.4-1.4 4.3-1.7 8.2-1.3 2.8.3 5.9 1 6.9 1.5m21.7-31.1c-8.3 1.8-13 12.4-9.5 21.4 5.8 15.4 27.5 10.7 27.5-5.8 0-11.1-7.7-17.8-18-15.6m9.9 5.7c4.8 4.8 4.9 15.4.1 19.7-3.1 2.8-9.5 2.5-12.6-.7-4.9-4.8-4.3-16.7 1-20.3 3.4-2.4 8.4-1.9 11.5 1.3m21.7-5.3c-4.3 1.5-3.9 1.2-5.5 4.3-2.2 4.2.2 7.7 7.8 11.4 4.9 2.5 6.7 3.9 6.9 5.6.6 4.1-1.5 5.3-8.7 5.1-5.4-.2-6.7 0-6.9 1.4-.2 1.2.8 1.7 4.2 2.2 6.7 1 11.1-.1 14-3.6 4.6-5.4 2.9-9-6.9-14.2-4.9-2.6-6-3.7-6-5.7 0-3.3 4.1-4.8 9.5-3.3 3.6.9 4 .8 4-.8 0-1.8-.8-2.1-7.1-3.3-.9-.2-3.3.2-5.3.9M327 738c0 14.3.1 15 2 15s2-.7 2-15-.1-15-2-15-2 .7-2 15m53.5-11.7c-7.9 7.9-6.2 22.4 3 26.3 6 2.5 16.5 1.3 16.5-1.8 0-1-1.8-1.2-7.2-1-6.6.4-7.5.2-9.5-2-1.3-1.3-2.6-3.8-2.9-5.6l-.6-3.2h10c11.5 0 12.2-.6 10.2-7.9-1.5-5.5-5-8.1-11.2-8.1-4.3 0-5.5.5-8.3 3.3m13.9 1.9c.9 1.2 1.6 3.5 1.6 5v2.8h-16.2l.7-2.8c1.1-4.5 4.4-7.2 8.6-7.2 2.8 0 4.2.6 5.3 2.2M409 738v15h5v-11.3c0-12.4.6-13.8 6.2-15.2 7.1-1.8 9.8 2.8 9.8 17 0 9.5 0 9.5 2.5 9.5s2.5-.1 2.5-8.8c0-10.3-1.3-15.6-4.5-18.8-3.4-3.4-9.3-3.3-13.4.2l-3.1 2.6v-2.6c0-2.1-.5-2.6-2.5-2.6H409zm62.4-12.7c-3.2 2.7-3.5 6.8-.8 9.9 1.1 1.1 4.4 3.2 7.4 4.7 4.8 2.3 5.5 3 5.8 5.8s-.1 3.3-2.3 3.9c-1.4.3-4.8.4-7.5.2-5.6-.6-7.8 1.5-3.4 3.2 6.7 2.6 16.1-.2 17.9-5.3 1.4-4.3-1-7.6-8.5-11.7-5.3-2.9-6.5-4-6.5-6 0-3.3 4.1-4.8 9.5-3.3 3.6.9 4 .8 4-.7 0-2.3-2-3-8-3-3.7 0-5.6.6-7.6 2.3M674 738v15h5v-30h-5zm74 0c0 14.3.1 15 2 15s2-.7 2-15-.1-15-2-15-2 .7-2 15m51 0v15h5v-11.4c0-11.2.1-11.5 2.6-13.5 5-3.9 10.6-1.8 12.4 4.7.5 2 1 7.4 1 11.9 0 7.6.2 8.3 2 8.3 1.9 0 2-.7 2-10.4 0-11.2-.7-14.3-4-17.6-3-3-9.4-2.7-13.7.6l-3.3 2.5v-2.5c0-1.9-.5-2.6-2-2.6-1.9 0-2 .7-2 15m36.8 15.7c-.9 3.2-1.7 6.5-1.9 7.3s.3 1.5 1.1 1.5c1.8 0 4.9-5.9 5.7-10.9.5-3.1.3-3.6-1.4-3.6s-2.4 1.2-3.5 5.7"/><path fill-opacity=".6" d="M558.3 371.7c1.5.2 3.7.2 5 0 1.2-.2 0-.4-2.8-.4-2.7 0-3.8.2-2.2.4M245.5 478.5c0 50 .1 70.4.2 45.2.2-25.2.2-66.2 0-91-.1-24.9-.2-4.3-.2 45.8m565.6-48.9c0 1.1.3 1.4.6.6.3-.7.2-1.6-.1-1.9-.3-.4-.6.2-.5 1.3m.1 6.4c0 1.4.2 1.9.5 1.2.2-.6.2-1.8 0-2.5-.3-.6-.5-.1-.5 1.3m-369.9 6.5c0 2.7.2 3.8.4 2.2.2-1.5.2-3.7 0-5-.2-1.2-.4 0-.4 2.8m92 200.5c0 4.1.2 5.8.4 3.7.2-2 .2-5.4 0-7.5-.2-2-.4-.3-.4 3.8m299.5-5.3c.6.2 1.8.2 2.5 0 .6-.3.1-.5-1.3-.5s-1.9.2-1.2.5m223 0c.6.2 1.8.2 2.5 0 .6-.3.1-.5-1.3-.5s-1.9.2-1.2.5m-888.5 11.8c0 3.8.2 5.3.4 3.2.2-2 .2-5.2 0-7-.2-1.7-.4-.1-.4 3.8m580-3c0 2.2.2 3 .4 1.7.2-1.2.2-3 0-4-.3-.9-.5.1-.4 2.3m-134.1 6c0 1.6.2 2.2.5 1.2.2-.9.2-2.3 0-3-.3-.6-.5.1-.5 1.8m150 .5c0 1.4.2 1.9.5 1.2.2-.6.2-1.8 0-2.5-.3-.6-.5-.1-.5 1.3m153.9-.4c0 1.1.3 1.4.6.6.3-.7.2-1.6-.1-1.9-.3-.4-.6.2-.5 1.3M533.4 664c0 5.2.1 7.4.3 4.7.2-2.6.2-6.8 0-9.5-.2-2.6-.3-.4-.3 4.8m213.9-1c0 4.7.2 6.6.4 4.2.2-2.3.2-6.1 0-8.5-.2-2.3-.4-.4-.4 4.3m-394.2-.4c0 1.1.3 1.4.6.6.3-.7.2-1.6-.1-1.9-.3-.4-.6.2-.5 1.3M167.3 669c0 4.1.2 5.8.4 3.7.2-2 .2-5.4 0-7.5-.2-2-.4-.3-.4 3.8m879.6-5.3c-1.3 1.6-1.2 1.7.4.4s2.1-2.1 1.3-2.1c-.2 0-1 .8-1.7 1.7M938.4 672c0 5.2.1 7.4.3 4.7.2-2.6.2-6.8 0-9.5-.2-2.6-.3-.4-.3 4.8m-585.2-1c0 1.9.2 2.7.5 1.7.2-.9.2-2.5 0-3.5-.3-.9-.5-.1-.5 1.8m312.6 6.7c.7.3 1.6.2 1.9-.1.4-.3-.2-.6-1.3-.5-1.1 0-1.4.3-.6.6m92 0c.7.3 1.6.2 1.9-.1.4-.3-.2-.6-1.3-.5-1.1 0-1.4.3-.6.6m-295.7 1.9c0 1.1.3 1.4.6.6.3-.7.2-1.6-.1-1.9-.3-.4-.6.2-.5 1.3M871.4 730c0 10.7.2 15.1.3 9.7.2-5.3.2-14.1 0-19.5-.1-5.3-.3-.9-.3 9.8m-142.1-11.5c0 2.2.2 3 .4 1.7.2-1.2.2-3 0-4-.3-.9-.5.1-.4 2.3m-108.5 8.2c.7.3 1.6.2 1.9-.1.4-.3-.2-.6-1.3-.5-1.1 0-1.4.3-.6.6m154 0c.7.3 1.6.2 1.9-.1.4-.3-.2-.6-1.3-.5-1.1 0-1.4.3-.6.6m199 0c.7.3 1.6.2 1.9-.1.4-.3-.2-.6-1.3-.5-1.1 0-1.4.3-.6.6M729.3 736c0 4.7.2 6.6.4 4.2.2-2.3.2-6.1 0-8.5-.2-2.3-.4-.4-.4 4.3m197.8-3.4c0 1.1.3 1.4.6.6.3-.7.2-1.6-.1-1.9-.3-.4-.6.2-.5 1.3M429.4 745c0 5.2.1 7.4.3 4.7.2-2.6.2-6.8 0-9.5-.2-2.6-.3-.4-.3 4.8m-90.3-6.4c0 1.1.3 1.4.6.6.3-.7.2-1.6-.1-1.9-.3-.4-.6.2-.5 1.3"/></svg>

